<svg xmlns="http://www.w3.org/2000/svg" width="79.891" height="97.114" viewBox="0 0 79.891 97.114">
  <g id="Grupo_82" data-name="Grupo 82" transform="translate(235.974 36.248)">
    <g id="Grupo_18" data-name="Grupo 18" transform="translate(-235.974 40.687)">
      <g id="Grupo_16" data-name="Grupo 16">
        <path id="Trazado_320" data-name="Trazado 320" d="M-228.567,95.694a8.483,8.483,0,0,1-3.37.792,3.879,3.879,0,0,1-4.037-3.96,4.189,4.189,0,0,1,4.388-4.248,10.674,10.674,0,0,1,2.5.427.44.44,0,0,0,.289-.088h.176v2.036h-.251a2.4,2.4,0,0,0-2.578-2.062c-2.214,0-3.346,1.836-3.346,3.859a3.4,3.4,0,0,0,3.257,3.721,4.239,4.239,0,0,0,1.924-.478V94.11c0-.717-.251-.956-1.006-.956h-.465v-.226h3.4v.226c-.629.038-.88.251-.88.792Z" transform="translate(235.974 -88.278)" fill="#fff"/>
        <path id="Trazado_321" data-name="Trazado 321" d="M-218.079,96.486c-2.465,0-4.54-1.584-4.54-3.934a4.28,4.28,0,0,1,4.6-4.274,4.134,4.134,0,0,1,4.414,3.884A4.327,4.327,0,0,1-218.079,96.486Zm-.264-7.894c-2.214,0-3.094,2.062-3.094,3.57a3.732,3.732,0,0,0,3.622,4.01c2.049,0,3.03-1.81,3.03-3.6C-214.784,90.238-216.268,88.592-218.343,88.592Z" transform="translate(230.87 -88.278)" fill="#fff"/>
        <path id="Trazado_322" data-name="Trazado 322" d="M-207.049,89.845c0-.716-.088-1.094-.969-1.094h-.44v-.238c.352-.013,1.22-.063,1.585-.075.691-.025,1.647-.038,1.886-.038a4.908,4.908,0,0,1,2.528.491,1.6,1.6,0,0,1,.767,1.4,1.65,1.65,0,0,1-1.433,1.533v.025a2.262,2.262,0,0,1,1.873,2.1,2.438,2.438,0,0,1-2.716,2.388h-4.6v-.238h.289c1.031,0,1.233-.239,1.233-1.031Zm1.044,1.936h1.371c1.207,0,1.811-.477,1.811-1.458,0-.88-.528-1.684-2.075-1.684-.276,0-.792.025-1.107.038Zm0,2.916c0,.956.378,1.295,1.434,1.295a1.88,1.88,0,0,0,2.138-2.011,2.017,2.017,0,0,0-2.214-1.961h-1.358Z" transform="translate(225.501 -88.324)" fill="#fff"/>
        <path id="Trazado_323" data-name="Trazado 323" d="M-193.3,96.4h-3.056v-.238c.78-.038.943-.239.943-1.081V89.727c0-.679-.239-.867-.943-.905v-.238h3.056v.238c-.793,0-1.069.176-1.069,1.018v5.33c0,.741.2.993,1.069.993Z" transform="translate(220.833 -88.395)" fill="#fff"/>
        <path id="Trazado_324" data-name="Trazado 324" d="M-185.089,93.573h-.239c-.1-.893-.339-.993-.855-.993h-2.125v2.678c0,.578.214.691.679.691h1.937c.88,0,1.145-.339,1.459-1.42h.227l-.2,1.873h-6.677v-.238h.352c1.006,0,1.183-.277,1.183-1.031v-5.3c0-.7-.164-1.006-1.006-1.006h-.276v-.238h6.036l.1,1.747h-.226c-.164-1.069-.478-1.295-.931-1.295h-2.654v3.092h2.251c.453,0,.667-.214.729-.943h.239Z" transform="translate(218.743 -88.395)" fill="#fff"/>
        <path id="Trazado_325" data-name="Trazado 325" d="M-177.832,95.149c0,.754.3.943,1.006.943h.289v.238H-180.1v-.238h.214c.741,0,1.006-.2,1.006-1.044V89.757c0-.78-.214-1.006-.943-1.006h-.276v-.238c.3,0,1.069-.051,1.584-.075s.767-.038,1.585-.038c2.327,0,3.37.956,3.37,2.238a2.145,2.145,0,0,1-1.672,2.036A14.993,14.993,0,0,1-173.8,93.98l.994.993a3.782,3.782,0,0,0,2.477,1.27v.226a4.037,4.037,0,0,1-3.886-1.5l-.83-.83a9.246,9.246,0,0,0-1.295-1.118c-.314.012-.516.025-.855.025-.277,0-.441-.012-.641-.025Zm0-2.363a5.447,5.447,0,0,0,.78.025c1.4,0,2.314-.591,2.314-2.1,0-1.169-.528-2.074-2.465-2.074a5.107,5.107,0,0,0-.628.025Z" transform="translate(214.619 -88.324)" fill="#fff"/>
        <path id="Trazado_326" data-name="Trazado 326" d="M-157.875,96.7l-6.514-6.813v5.392c0,.905.2,1.094,1.27,1.094v.239h-2.917v-.239h.05c.78,0,1.032-.264,1.032-.842V89.343a1.848,1.848,0,0,0-1.056-.314V88.79h1.974l5.924,6.171v-5c0-.767-.227-.905-1.233-.93V88.79h2.943v.239c-.943,0-1.144.163-1.144.653V96.7Z" transform="translate(209.246 -88.474)" fill="#fff"/>
        <path id="Trazado_327" data-name="Trazado 327" d="M-146.378,96.486c-2.465,0-4.54-1.584-4.54-3.934a4.28,4.28,0,0,1,4.6-4.274,4.135,4.135,0,0,1,4.414,3.884A4.328,4.328,0,0,1-146.378,96.486Zm-.264-7.894c-2.214,0-3.093,2.062-3.093,3.57a3.732,3.732,0,0,0,3.622,4.01c2.049,0,3.03-1.81,3.03-3.6C-143.083,90.238-144.567,88.592-146.642,88.592Z" transform="translate(203.468 -88.278)" fill="#fff"/>
        <path id="Trazado_328" data-name="Trazado 328" d="M-130.192,89.769c0-.817-.214-1.018-.956-1.018h-.251v-.238c.465-.025,1.082-.051,1.773-.075s1.459-.038,2.113-.038c3.32,0,4.791,1.684,4.791,3.758a4.3,4.3,0,0,1-4.653,4.173H-131.4v-.238h.214c.679,0,.993-.188.993-.917Zm1.044,5.632c0,.515.038.691,1.031.691,1.685,0,2.389-.239,3.169-1.018a3.874,3.874,0,0,0,1.044-2.715,3.783,3.783,0,0,0-1.006-2.7,4.217,4.217,0,0,0-3.232-1.018c-.515,0-.855.038-1.006.05Z" transform="translate(196.008 -88.324)" fill="#fff"/>
        <path id="Trazado_329" data-name="Trazado 329" d="M-112,93.573h-.239c-.1-.893-.34-.993-.855-.993h-2.125v2.678c0,.578.214.691.679.691h1.936c.88,0,1.145-.339,1.459-1.42h.226l-.2,1.873H-117.8v-.238h.352c1.006,0,1.182-.277,1.182-1.031v-5.3c0-.7-.163-1.006-1.006-1.006h-.277v-.238h6.036l.1,1.747h-.226c-.164-1.069-.478-1.295-.93-1.295h-2.654v3.092h2.251c.453,0,.667-.214.73-.943H-112Z" transform="translate(190.811 -88.395)" fill="#fff"/>
      </g>
      <g id="Grupo_17" data-name="Grupo 17" transform="translate(0.042 11.849)">
        <path id="Trazado_330" data-name="Trazado 330" d="M-230.023,112.831h-.242c-.1-.906-.345-1.008-.868-1.008h-2.157v2.717c0,.587.217.7.69.7h1.965c.893,0,1.161-.345,1.481-1.441h.229l-.2,1.9h-6.776v-.242h.357c1.021,0,1.2-.28,1.2-1.046V109.03c0-.714-.166-1.021-1.021-1.021h-.28v-.242h6.125l.1,1.773h-.229c-.166-1.084-.485-1.314-.945-1.314h-2.693v3.138h2.284c.46,0,.677-.217.741-.956h.242Z" transform="translate(235.906 -107.575)" fill="#fff"/>
        <path id="Trazado_331" data-name="Trazado 331" d="M-218.2,115.7h-5.7v-.242h.421c.587,0,.8-.192.8-.842v-5.65c0-.677-.2-.957-1.008-.957h-.179v-.242h3.764v.242h-.472c-.829,0-1.047.09-1.047.88v5.88c0,.344.14.472.511.472h1.876c.753,0,.982-.293,1.786-1.4h.23Z" transform="translate(231.319 -107.575)" fill="#fff"/>
        <path id="Trazado_332" data-name="Trazado 332" d="M-207.259,113.643a2.213,2.213,0,0,0,2.157,1.8,1.6,1.6,0,0,0,1.761-1.505c0-1.837-4.1-2.4-4.1-4.63a2.04,2.04,0,0,1,2.271-1.85,8.583,8.583,0,0,1,1.736.319.245.245,0,0,0,.23-.127h.2l.217,1.62H-203a2.254,2.254,0,0,0-2.055-1.505,1.265,1.265,0,0,0-1.429,1.2c0,1.811,4.1,2.3,4.1,4.643a2.357,2.357,0,0,1-2.6,2.181,10.443,10.443,0,0,1-1.774-.344.306.306,0,0,0-.255.14h-.217l-.268-1.939Z" transform="translate(225.05 -107.457)" fill="#fff"/>
        <path id="Trazado_333" data-name="Trazado 333" d="M-196.12,112.062l-.74,2a3.585,3.585,0,0,0-.255.8c0,.344.332.472,1.034.472h.2v.242h-2.948v-.242c.83-.013.97-.153,1.378-1.263l2.322-6.34-.115-.28h1.11l2.667,7.079a1,1,0,0,0,1.161.8v.242h-3.509v-.242h.332c.728,0,1-.077,1-.434a1.413,1.413,0,0,0-.14-.523l-.855-2.321Zm1.3-3.533L-195.9,111.5h2.207Z" transform="translate(221.735 -107.457)" fill="#fff"/>
        <path id="Trazado_334" data-name="Trazado 334" d="M-179.424,115.7h-5.7v-.242h.421c.587,0,.8-.192.8-.842v-5.65c0-.677-.2-.957-1.008-.957h-.179v-.242h3.764v.242h-.471c-.83,0-1.047.09-1.047.88v5.88c0,.344.141.472.511.472h1.876c.753,0,.983-.293,1.787-1.4h.23Z" transform="translate(216.5 -107.575)" fill="#fff"/>
        <path id="Trazado_335" data-name="Trazado 335" d="M-173.7,115.9l-2.768-6.9c-.319-.8-.473-1-1.251-1v-.242h3.509v.242c-1.174.026-1.454.293-1.212.88l2.3,5.714,2.017-5.268a2.487,2.487,0,0,0,.217-.791c0-.382-.319-.536-1.187-.536v-.242h2.961v.242c-.664,0-1.008.306-1.315,1.1l-2.629,6.8Z" transform="translate(213.667 -107.575)" fill="#fff"/>
        <path id="Trazado_336" data-name="Trazado 336" d="M-163.483,112.062l-.741,2a3.612,3.612,0,0,0-.255.8c0,.344.331.472,1.033.472h.2v.242h-2.948v-.242c.829-.013.97-.153,1.378-1.263l2.323-6.34-.115-.28h1.11l2.667,7.079a1,1,0,0,0,1.161.8v.242h-3.509v-.242h.332c.727,0,1-.077,1-.434a1.414,1.414,0,0,0-.14-.523l-.855-2.321Zm1.3-3.533-1.084,2.972h2.207Z" transform="translate(209.262 -107.457)" fill="#fff"/>
        <path id="Trazado_337" data-name="Trazado 337" d="M-151.371,108.971c0-.829-.217-1.033-.97-1.033h-.255V107.7c.473-.025,1.1-.051,1.8-.077s1.48-.038,2.144-.038c3.368,0,4.862,1.709,4.862,3.814a4.364,4.364,0,0,1-4.721,4.235H-152.6v-.242h.217c.689,0,1.008-.192,1.008-.931Zm1.06,5.714c0,.523.038.7,1.046.7,1.71,0,2.425-.243,3.216-1.033a3.937,3.937,0,0,0,1.059-2.756,3.837,3.837,0,0,0-1.021-2.742,4.28,4.28,0,0,0-3.279-1.034c-.523,0-.868.038-1.021.051Z" transform="translate(204.067 -107.504)" fill="#fff"/>
        <path id="Trazado_338" data-name="Trazado 338" d="M-132.823,115.786c-2.5,0-4.607-1.607-4.607-3.992a4.343,4.343,0,0,1,4.67-4.337c2.412,0,4.48,1.645,4.48,3.942A4.391,4.391,0,0,1-132.823,115.786Zm-.268-8.01c-2.246,0-3.139,2.092-3.139,3.623a3.787,3.787,0,0,0,3.675,4.068c2.08,0,3.076-1.836,3.076-3.648C-129.48,109.447-130.985,107.776-133.091,107.776Z" transform="translate(198.271 -107.457)" fill="#fff"/>
        <path id="Trazado_339" data-name="Trazado 339" d="M-120.485,114.43c0,.765.306.957,1.021.957h.293v.242h-3.611v-.242h.217c.753,0,1.021-.2,1.021-1.059v-5.37c0-.791-.217-1.021-.958-1.021h-.28V107.7c.306,0,1.085-.051,1.608-.077s.778-.038,1.608-.038c2.361,0,3.42.969,3.42,2.271a2.178,2.178,0,0,1-1.7,2.067,15.228,15.228,0,0,1,1.455,1.326l1.008,1.008a3.841,3.841,0,0,0,2.514,1.288v.229a4.1,4.1,0,0,1-3.944-1.517l-.842-.842a9.4,9.4,0,0,0-1.314-1.135c-.319.012-.523.025-.868.025-.28,0-.447-.013-.651-.025Zm0-2.4a5.519,5.519,0,0,0,.791.025c1.416,0,2.348-.6,2.348-2.13,0-1.186-.536-2.1-2.5-2.1a5.145,5.145,0,0,0-.638.026Z" transform="translate(192.673 -107.504)" fill="#fff"/>
      </g>
    </g>
    <path id="Trazado_340" data-name="Trazado 340" d="M-173.125-36.248l.937,1.9,2.1.3-1.517,1.478.358,2.087-1.875-.985-1.875.985.358-2.087-1.517-1.478,2.1-.3Z" transform="translate(-22.86)" fill="#fff"/>
    <path id="Trazado_341" data-name="Trazado 341" d="M-150.822-30.555l.937,1.9,2.1.3-1.517,1.478.358,2.087-1.875-.985-1.875.985.358-2.087-1.517-1.478,2.1-.3Z" transform="translate(-31.384 -2.176)" fill="#fff"/>
    <path id="Trazado_342" data-name="Trazado 342" d="M-133.72-16.713l.937,1.9,2.1.3-1.517,1.478.358,2.087-1.875-.985-1.875.985.358-2.087-1.517-1.478,2.1-.3Z" transform="translate(-37.92 -7.466)" fill="#fff"/>
    <path id="Trazado_343" data-name="Trazado 343" d="M-123.951,3.1l.937,1.9,2.1.3-1.517,1.478.358,2.087-1.875-.985-1.875.985.358-2.087-1.517-1.478,2.1-.3Z" transform="translate(-41.653 -15.039)" fill="#fff"/>
    <path id="Trazado_344" data-name="Trazado 344" d="M-123.575,26.1l.937,1.9,2.1.3-1.517,1.478.358,2.087-1.875-.985-1.875.985.358-2.087-1.517-1.478,2.1-.3Z" transform="translate(-41.796 -23.829)" fill="#fff"/>
    <path id="Trazado_345" data-name="Trazado 345" d="M-133.7,46.014l.937,1.9,2.1.3-1.517,1.478.358,2.087L-133.7,50.8l-1.875.985.358-2.087-1.517-1.478,2.1-.3Z" transform="translate(-37.927 -31.438)" fill="#fff"/>
    <path id="Trazado_346" data-name="Trazado 346" d="M-150.714,59.867l.937,1.9,2.1.3-1.517,1.478.358,2.087-1.875-.985-1.875.985.358-2.087-1.517-1.478,2.1-.3Z" transform="translate(-31.425 -36.733)" fill="#fff"/>
    <path id="Trazado_347" data-name="Trazado 347" d="M-173.134,64.73l.937,1.9,2.1.3-1.517,1.478.358,2.087-1.875-.985-1.875.985.358-2.087-1.517-1.478,2.1-.3Z" transform="translate(-22.857 -38.591)" fill="#fff"/>
    <path id="Trazado_348" data-name="Trazado 348" d="M-195.056,59.881l.937,1.9,2.1.3-1.517,1.478.358,2.087-1.875-.985-1.875.985.358-2.087-1.517-1.478,2.1-.3Z" transform="translate(-14.478 -36.738)" fill="#fff"/>
    <path id="Trazado_349" data-name="Trazado 349" d="M-212.08,46.039l.937,1.9,2.1.3-1.517,1.478.358,2.087-1.875-.985-1.875.985.358-2.087-1.517-1.478,2.1-.3Z" transform="translate(-7.972 -31.448)" fill="#fff"/>
    <path id="Trazado_350" data-name="Trazado 350" d="M-222.217,26.252l.937,1.9,2.1.3-1.517,1.478.358,2.087-1.875-.985-1.875.985.358-2.087-1.517-1.478,2.1-.3Z" transform="translate(-4.098 -23.886)" fill="#fff"/>
    <path id="Trazado_351" data-name="Trazado 351" d="M-222.217,3.1l.937,1.9,2.1.3L-220.7,6.785l.358,2.087-1.875-.985-1.875.985.358-2.087-1.517-1.478,2.1-.3Z" transform="translate(-4.098 -15.039)" fill="#fff"/>
    <path id="Trazado_352" data-name="Trazado 352" d="M-212.594-16.689l.937,1.9,2.1.3-1.517,1.478.358,2.087-1.875-.985-1.875.985.358-2.087-1.517-1.478,2.1-.3Z" transform="translate(-7.776 -7.475)" fill="#fff"/>
    <path id="Trazado_353" data-name="Trazado 353" d="M-195.085-30.541l.937,1.9,2.1.3-1.517,1.478.358,2.087-1.875-.985-1.875.985.358-2.087-1.517-1.478,2.1-.3Z" transform="translate(-14.467 -2.181)" fill="#fff"/>
    <g id="Grupo_19" data-name="Grupo 19" transform="translate(-215.032 -22.378)">
      <path id="Trazado_354" data-name="Trazado 354" d="M-145.424,26.882a.229.229,0,0,0-.03-.006.256.256,0,0,0-.261.26.256.256,0,0,0,.261.26.229.229,0,0,0,.03-.006.268.268,0,0,0,.032.006.263.263,0,0,0,.26-.26.263.263,0,0,0-.26-.26A.268.268,0,0,0-145.424,26.882Z" transform="translate(180.537 -1.746)" fill="#fff"/>
      <path id="Trazado_355" data-name="Trazado 355" d="M-164.075,7.688a1.779,1.779,0,0,0-.634.237.945.945,0,0,1-.366.152.961.961,0,0,0,.094-.5c-.045-.476-.045-1.256-.045-1.256s-.159.475-.385.588-.667.272-.747.431-.4.158-.52.633a1.774,1.774,0,0,1-.192.588,1.486,1.486,0,0,1-.1.161,10.7,10.7,0,0,0,.259-2.083c0-.11,0-.216,0-.324a3.081,3.081,0,0,0,.272-.262c.1-.165,1.314-.58,1.483-.908s.26-.542.339-.678a2.351,2.351,0,0,0,.193-.882,7.491,7.491,0,0,0-.136-1.21,1.631,1.631,0,0,0-.5.384.592.592,0,0,1-.135.138.936.936,0,0,0-.057-.339c-.17-.419-.43-.973-.43-.973s-.226.351-.351.566c-.2.407-.408.441-.442.6s-.271.271-.362.6a2.461,2.461,0,0,0-.062.262c-.09-.7-.206-1.336-.337-1.91.058-.184.124-.584.287-.717a.942.942,0,0,0,.271-.792,3.094,3.094,0,0,0-.112-.746c-.035-.193-.634-1.018-.589-1.255,0,0-.295.668-.407.93a4.859,4.859,0,0,0-1-.76q-.222-.388-.457-.778c.007-.077.024-.238.049-.411a1.9,1.9,0,0,0,.045-.826c-.079-.192-.238-.35-.317-.588a1.156,1.156,0,0,0-.317-.588c-.192-.2-.475-.475-.475-.475s-.077.349-.15.633a1.059,1.059,0,0,0-.2-.078c-.046-.019-.146-.07-.256-.129-.136-.185-.269-.361-.393-.516a.251.251,0,0,0,.117-.214.256.256,0,0,0-.26-.26.256.256,0,0,0-.26.26.256.256,0,0,0,.26.26.253.253,0,0,0,.14-.045c.036.056.14.217.292.459-.127-.07-.25-.141-.308-.177-.1-.068-.158.709.078,1.139L-171.306-4a2.808,2.808,0,0,0-.905-.079c.114,0,.4.305.43.463a1.349,1.349,0,0,0,.476.589,2.827,2.827,0,0,1,.588.441,1.832,1.832,0,0,0,1,.193.579.579,0,0,0,.347.086c.146.252.291.507.434.762a2.587,2.587,0,0,0-.092.677h0c-.193-.034-.861-.192-.861-.192a2.325,2.325,0,0,0,.344.985.245.245,0,0,0-.074.133.321.321,0,0,0,.056.238.826.826,0,0,0,.373.31l-3.234,2.275a44.6,44.6,0,0,0-.318-8.339c.393-.148.287-.325.287-.325l-.153-.382a.314.314,0,0,0,.127.03.247.247,0,0,0,.185-.078.285.285,0,0,0-.043-.4.837.837,0,0,0-.25-.178l.461-.067.264-1.115h0l-1.085.368-.023.465a.828.828,0,0,0-.2-.228.287.287,0,0,0-.4-.009.286.286,0,0,0,.045.4.877.877,0,0,0,.4.21.145.145,0,0,0,.015.029l-5.424,5.978-3.6-6.019a9.835,9.835,0,0,0-.592-3.763,2.213,2.213,0,0,0,.063-.6.514.514,0,0,0,.342-.34l0-.007v-.01l0-.007a5.63,5.63,0,0,0-.416-.464,1.093,1.093,0,0,0,.2.024h.025a.287.287,0,0,0,.3-.264.284.284,0,0,0-.3-.263h0a.83.83,0,0,0-.3.037l.3-.361-.556-1h0l-.554,1,.3.361a.843.843,0,0,0-.3-.037.324.324,0,0,0-.23.091.241.241,0,0,0-.074.172.241.241,0,0,0,.074.172.322.322,0,0,0,.225.091h.025a1.128,1.128,0,0,0,.159-.017c-.092.086-.209.218-.291.313a.352.352,0,0,0-.078.092l-.019.023a.387.387,0,0,0,.012.04c0,.008,0,.016,0,.024a.522.522,0,0,0,.166.2,7.763,7.763,0,0,0-.841,5.3l-3.114,5.207-5.445-6a.826.826,0,0,0,.432-.214.326.326,0,0,0,.109-.221.245.245,0,0,0-.062-.178.244.244,0,0,0-.171-.078.336.336,0,0,0-.226.083.827.827,0,0,0-.2.232L-193.2-7.6l-1.084-.368h0l.264,1.115.462.067a.791.791,0,0,0-.246.174.326.326,0,0,0-.109.221.246.246,0,0,0,.062.178.244.244,0,0,0,.171.078h.013a.311.311,0,0,0,.126-.03l-.153.382s-.106.177.287.325a44.561,44.561,0,0,0-.317,8.339L-196.963.6a.821.821,0,0,0,.371-.307.329.329,0,0,0,.061-.214.243.243,0,0,0-.074-.154,2.307,2.307,0,0,0,.347-.991s-.668.158-.86.192h0a2.613,2.613,0,0,0-.092-.677c.142-.255.288-.51.434-.762a.578.578,0,0,0,.347-.086,1.83,1.83,0,0,0,1-.193,2.846,2.846,0,0,1,.589-.441,1.343,1.343,0,0,0,.475-.589c.034-.158.317-.463.43-.463a2.808,2.808,0,0,0-.905.079l-.111.029c.235-.43.179-1.207.077-1.139-.057.036-.181.108-.308.177.153-.242.256-.4.292-.459a.255.255,0,0,0,.141.045.256.256,0,0,0,.26-.26.256.256,0,0,0-.26-.26.256.256,0,0,0-.261.26.251.251,0,0,0,.118.214c-.125.155-.257.331-.393.516-.11.059-.21.111-.256.129a1.044,1.044,0,0,0-.2.078c-.073-.284-.15-.633-.15-.633s-.283.271-.475.475a1.165,1.165,0,0,0-.317.588c-.079.238-.237.4-.317.588a1.9,1.9,0,0,0,.045.826c.025.173.042.335.049.411q-.234.389-.457.778a4.842,4.842,0,0,0-1,.76c-.112-.263-.407-.93-.407-.93.045.237-.555,1.063-.589,1.255a3.06,3.06,0,0,0-.113.746.942.942,0,0,0,.272.792c.163.132.229.533.287.717-.132.573-.248,1.21-.337,1.91a2.662,2.662,0,0,0-.062-.262c-.09-.328-.339-.43-.362-.6s-.238-.192-.441-.6c-.125-.215-.351-.566-.351-.566s-.261.554-.43.973a.937.937,0,0,0-.057.339.58.58,0,0,1-.135-.138,1.639,1.639,0,0,0-.5-.384,7.426,7.426,0,0,0-.136,1.21,2.352,2.352,0,0,0,.192.882c.079.136.17.362.339.678s1.383.743,1.483.908a3.128,3.128,0,0,0,.273.262c0,.108,0,.214,0,.324a10.748,10.748,0,0,0,.259,2.083,1.476,1.476,0,0,1-.1-.161,1.774,1.774,0,0,1-.192-.588c-.124-.475-.442-.475-.521-.633s-.509-.318-.746-.431-.385-.588-.385-.588,0,.78-.045,1.256a.955.955,0,0,0,.093.5.948.948,0,0,1-.366-.152,1.778,1.778,0,0,0-.633-.237,10.168,10.168,0,0,0,.237,1.255,2.327,2.327,0,0,0,.476.825c.113.124.271.317.543.588a6.246,6.246,0,0,0,1.776.6,1.044,1.044,0,0,1,.553.416c.028.1.053.19.069.253.088.343.2.761.339,1.212a1.486,1.486,0,0,0-1.039-.432c-.272-.045-1.335-.317-1.335-.317a2.723,2.723,0,0,1,.567,1.178,3.559,3.559,0,0,0-1.235,0,3.982,3.982,0,0,1,1.053,1.187,4.256,4.256,0,0,0,.667,1.176c.125.079.476.509.714.747s1.176.113,1.493.113a2.937,2.937,0,0,1,.72.229,7.667,7.667,0,0,0,1,1.04,2.67,2.67,0,0,1-.867-.568c-.154-.208.022.7.2.989a1.422,1.422,0,0,1-.685-.2c-.26-.2-.034.712.248.972.609.542.554.628.651.665a3.452,3.452,0,0,1-1.443.149c-.283-.159.316.4.679.531.52.192.453.532,1.018.712a4.4,4.4,0,0,0,1.584.363,5.2,5.2,0,0,1,.86-.215,13.169,13.169,0,0,1,1.588-.582,21.63,21.63,0,0,0,1.92,1.057l.1.047a1.879,1.879,0,0,0-.224.032,4.208,4.208,0,0,1-1.449.158c-.215-.112.245.522.536.761a4.682,4.682,0,0,1-1.328.1c-.317-.068.634.848,1.007.95l.044.012a2.566,2.566,0,0,1-.722.164c-.328-.023,1.041.871,1.415.814,1.2-.169,2.331.238,2.885.012.5-.193.792-.328,1.041-.407s.385-.317.543-.43a1.623,1.623,0,0,1,.572-.464.158.158,0,0,0,.067.014,10.742,10.742,0,0,0,1.264,0,1.979,1.979,0,0,0-.516.31,13.114,13.114,0,0,0-1.274.441,11.912,11.912,0,0,0-2,1.651s1.018-.079,1.177-.079.509-.7.667-.825c.046-.033.3-.166.685-.343a1.631,1.631,0,0,0,.318,2.036c-.271-.317.034-.871.034-.871l.554.35a1.6,1.6,0,0,1,.738-2.208l.112-.042a.56.56,0,0,0,.439.239.553.553,0,0,0,.424-.223l.213.082a1.554,1.554,0,0,1,.652,2.153l.555-.35s.305.554.034.871a1.634,1.634,0,0,0,.342-2c.334.157.559.273.6.3.159.124.509.825.668.825s1.177.079,1.177.079a11.914,11.914,0,0,0-2-1.651,12.3,12.3,0,0,0-1.181-.411,2.026,2.026,0,0,0-.55-.339,10.742,10.742,0,0,0,1.264,0,.067.067,0,0,0,.023,0,1.915,1.915,0,0,1,.557.454c.158.113.294.339.543.43s.543.214,1.04.407c.555.226,1.687-.181,2.886-.012.373.057,1.743-.837,1.415-.814a2.566,2.566,0,0,1-.722-.164l.044-.012c.373-.1,1.323-1.018,1.007-.95a4.681,4.681,0,0,1-1.328-.1c.291-.239.751-.874.536-.761a4.2,4.2,0,0,1-1.448-.158,1.9,1.9,0,0,0-.224-.032l.1-.047a21.729,21.729,0,0,0,1.92-1.057,13.111,13.111,0,0,1,1.587.582,5.172,5.172,0,0,1,.86.215,4.4,4.4,0,0,0,1.585-.363c.565-.18.5-.52,1.018-.712.362-.136.962-.69.679-.531a3.454,3.454,0,0,1-1.444-.149c.1-.037.041-.123.651-.665.283-.26.509-1.176.249-.972a1.426,1.426,0,0,1-.686.2c.176-.293.352-1.2.2-.989a2.667,2.667,0,0,1-.868.568,7.679,7.679,0,0,0,1-1.04,2.929,2.929,0,0,1,.72-.229c.317,0,1.255.124,1.493-.113s.588-.668.713-.747a4.255,4.255,0,0,0,.668-1.176,3.99,3.99,0,0,1,1.052-1.187,3.559,3.559,0,0,0-1.235,0,2.724,2.724,0,0,1,.567-1.178s-1.063.272-1.335.317a1.487,1.487,0,0,0-1.04.432c.136-.451.251-.869.34-1.212.016-.064.04-.153.069-.253a1.039,1.039,0,0,1,.552-.416,6.259,6.259,0,0,0,1.777-.6c.271-.271.43-.464.543-.588a2.335,2.335,0,0,0,.475-.825A10.064,10.064,0,0,0-164.075,7.688Zm-2.828-.756a10.966,10.966,0,0,1-.243,1.6,1.663,1.663,0,0,0-.179-.639c-.113-.237-.271-.237-.35-.475s-.351-.317-.509-.509a3.492,3.492,0,0,0-.476-.43,4.279,4.279,0,0,0-.079,1.493.948.948,0,0,1,.057.236c-.116-.044-.217-.079-.217-.079-.2.463.034.938.114,1.368a3.093,3.093,0,0,0,.271.554c.079.158.045.305.124.43.074.1.246.119.424.282a2.223,2.223,0,0,0,.1.616c-.151.506-.318,1.023-.5,1.535a1.177,1.177,0,0,0-.188-.544,1.972,1.972,0,0,1-.351-.634c-.158-.43-.475-.43-.52-.859a8.093,8.093,0,0,0-.147.939,2.362,2.362,0,0,0,.068.825,1.42,1.42,0,0,1-.07.528,1.567,1.567,0,0,0-.156-.685.764.764,0,0,1-.08-.475,4.292,4.292,0,0,1-.6.8l-.146-.246c2.064-3.609,1.583-9.785,1.505-10.632.333-.07.276-.242.276-.242l-.066-.4a.312.312,0,0,0,.1.052.268.268,0,0,0,.072.01.234.234,0,0,0,.137-.043.244.244,0,0,0,.1-.185.106.106,0,0,0,0-.014,1.2,1.2,0,0,0,.421.34c.282.079.52.2.554.317v0a18.661,18.661,0,0,1,.4,2.247l0,0c-.317-.351-.4-1.018-1.1-1.38a2.055,2.055,0,0,1,0,.475,2.808,2.808,0,0,0-.066.617,1.965,1.965,0,0,1-.538-.528,3.288,3.288,0,0,0,.159,1.493c.282.508.282.78.588.893a1.47,1.47,0,0,1,.475.282,1.03,1.03,0,0,0,.475.193.143.143,0,0,1,.1.061,2,2,0,0,0,.063.238C-166.9,6.558-166.9,6.754-166.9,6.932Zm-27.429-4.254,2.094,1.473a7.039,7.039,0,0,0,.3,2.317l-1.738,2.906C-193.967,8.75-194.7,6.713-194.332,2.678ZM-197.558.971A.582.582,0,0,1-197.2.7a.651.651,0,0,1-.136.439.2.2,0,0,1-.112.082.126.126,0,0,1-.106-.015.123.123,0,0,1-.05-.095A.212.212,0,0,1-197.558.971Zm6.87-4.843,1.665,1.835a7.622,7.622,0,0,0,.329,3.077l-1.516,2.534C-190.571,2.838-191.32.669-190.689-3.872Zm6.493-1.186a6.567,6.567,0,0,1,2.229-.006l.237.4a6.191,6.191,0,0,0-2.706.011Zm.19-.317.926-1.548.922,1.541A6.855,6.855,0,0,0-184.006-5.376Zm-.636,1.064a5.891,5.891,0,0,1,3.119-.011l.256.428a5.436,5.436,0,0,0-1.794-.3,5.429,5.429,0,0,0-1.839.316Zm-.505.846a5.222,5.222,0,0,1,4.125-.021l6.4,10.691h-2.346a2.808,2.808,0,0,1-.309-.217,1.169,1.169,0,0,0-.109-.082.693.693,0,0,0-.524-.1,1.02,1.02,0,0,0-.276.1,1.639,1.639,0,0,0-.247.158.068.068,0,0,1-.028.018,1.065,1.065,0,0,1-.117-.049,2.836,2.836,0,0,1-.576-.374,1.043,1.043,0,0,0-.185-.126.749.749,0,0,0-.35-.085.868.868,0,0,0-.249.038,1.351,1.351,0,0,0-.326.151,1.991,1.991,0,0,0-.2.14c-.007.006-.014.014-.025.015l-.014-.009a2.166,2.166,0,0,0-.376-.19,2.085,2.085,0,0,1-.339-.174,3.512,3.512,0,0,1-.437-.312A1.072,1.072,0,0,0-181.81,6a.882.882,0,0,0-.374-.118.936.936,0,0,0-.269.019,1.327,1.327,0,0,0-.342.127,1.841,1.841,0,0,0-.168.108V2.425c.392-.024.693-.16.693-.325a3.142,3.142,0,0,0-.657-1.549.694.694,0,0,0-.777-.02s-.487.282-.237.678c0,0,.053.12.264.035a.282.282,0,0,0,.173-.213l0,.1c0,.137-.19.213-.2.217a3.6,3.6,0,0,0-.2.757c0,.166.3.3.7.326V6.183l-.036-.02a3.76,3.76,0,0,1-.463-.331,1.185,1.185,0,0,0-.171-.12.953.953,0,0,0-.376-.124,1,1,0,0,0-.315.019,1.41,1.41,0,0,0-.359.133,2.269,2.269,0,0,0-.337.217.065.065,0,0,1-.027.017l-.027-.016-.146-.084a1.719,1.719,0,0,0-.213-.1,2.383,2.383,0,0,1-.281-.126,4.231,4.231,0,0,1-.733-.492l-.065-.053a1.144,1.144,0,0,0-.6-.238.147.147,0,0,1-.022-.006h-.122a.221.221,0,0,1-.028.006,1.4,1.4,0,0,0-.416.1,2.181,2.181,0,0,0-.432.238,3.626,3.626,0,0,0-.432.358,5.549,5.549,0,0,0-.487.536,6.43,6.43,0,0,0-.411.571.228.228,0,0,1-.02.028q-.139.171-.294.327c-.063.064-.133.119-.2.18h-1.307Zm9.2,7.037-1.516-2.532a7.626,7.626,0,0,0,.329-3.076l1.664-1.835C-174.837.666-175.584,2.834-175.946,3.571ZM-168.96.7a.588.588,0,0,1,.365.279.206.206,0,0,1,.039.133.126.126,0,0,1-.051.095.124.124,0,0,1-.106.015.208.208,0,0,1-.114-.085A.649.649,0,0,1-168.96.7Zm-3.517,8.671-1.739-2.9a7.066,7.066,0,0,0,.3-2.313l2.094-1.473C-171.459,6.7-172.186,8.741-172.476,9.368Zm-22.439,3.5,1.631-2.728h19.812l-.024-.015c-.034-.019-.069-.036-.1-.056a3.278,3.278,0,0,1-.337-.237c-.2-.153-.38-.318-.56-.486-.262-.244-.514-.5-.761-.757-.162-.17-.322-.341-.478-.517q-.1-.115-.214-.221a2.9,2.9,0,0,0-.433-.342,1.773,1.773,0,0,0-.213-.115h2.086l3.277,5.475Zm3.274-5.475h1.211a8.269,8.269,0,0,1-.731.571c-.023.016-.047.031-.071.045a4.391,4.391,0,0,0-.394.27c-.206.157-.4.324-.6.5s-.379.35-.563.531Zm8.517-.742c.046.022.092.041.139.06a1.315,1.315,0,0,1,.156.072,2.818,2.818,0,0,1,.4.264,4.293,4.293,0,0,1,.576.545c.268.3.545.6.827.888.116.119.232.237.349.354.3.3.6.586.919.861l.059.051.012.012,0,.006h-1.548a.053.053,0,0,1-.044-.015c-.035-.027-.07-.053-.1-.08-.216-.168-.424-.346-.627-.529-.234-.21-.462-.426-.686-.646q-.735-.72-1.425-1.483c-.08-.088-.158-.179-.24-.265a5.051,5.051,0,0,0-.572-.524l-.023-.02.012-.011a1.486,1.486,0,0,1,.317-.176.87.87,0,0,1,.2-.052.562.562,0,0,1,.344.061.759.759,0,0,1,.145.1,3.8,3.8,0,0,0,.369.274A3.364,3.364,0,0,0-183.125,6.653Zm6.243,1.029.072.03a1.031,1.031,0,0,1,.172.085,2.487,2.487,0,0,1,.4.308q.12.111.227.233.218.247.446.484.2.213.412.423c.167.169.34.332.515.492a.088.088,0,0,1,.024.026l-.009,0h-.861a.069.069,0,0,1-.055-.019c-.162-.132-.32-.271-.474-.413s-.3-.28-.444-.424q-.481-.475-.934-.978c-.064-.07-.127-.141-.193-.209a3.378,3.378,0,0,0-.487-.418l-.022-.016a.029.029,0,0,1,.007-.009.73.73,0,0,1,.237-.1.319.319,0,0,1,.24.04.825.825,0,0,1,.085.062A2.915,2.915,0,0,0-176.882,7.682Zm-1.168.114a3.52,3.52,0,0,1,.331.327c.223.251.453.5.688.738.21.217.424.429.644.635.088.082.177.162.266.244l.022.02-.012,0h-1.222a.05.05,0,0,1-.04-.014c-.08-.066-.161-.13-.241-.2-.227-.192-.447-.394-.66-.6-.125-.121-.249-.242-.372-.365q-.481-.484-.939-.989c-.067-.074-.133-.149-.2-.221a4,4,0,0,0-.355-.332l-.017-.015,0-.007.009-.007a1.224,1.224,0,0,1,.259-.149.587.587,0,0,1,.186-.043.369.369,0,0,1,.2.044.657.657,0,0,1,.112.077,3.271,3.271,0,0,0,.608.4,1.781,1.781,0,0,0,.185.083,1.114,1.114,0,0,1,.172.085A2.586,2.586,0,0,1-178.05,7.8Zm-1.878-.014c.172.195.349.385.528.574q.243.257.492.507c.282.284.572.561.872.826l.068.059.012.013-.01,0h-1.088a.061.061,0,0,1-.048-.015c-.079-.065-.161-.129-.24-.194-.259-.216-.508-.444-.751-.679q-.2-.189-.39-.383-.518-.519-1.01-1.063c-.075-.083-.15-.167-.227-.249a4.2,4.2,0,0,0-.638-.55,2.8,2.8,0,0,0-.341-.205l-.019-.011s0-.007.007-.009a1.054,1.054,0,0,1,.321-.139.6.6,0,0,1,.176-.014.5.5,0,0,1,.2.062.833.833,0,0,1,.133.093,3.671,3.671,0,0,0,.769.493c.039.018.078.035.118.05a1.4,1.4,0,0,1,.2.1,3.016,3.016,0,0,1,.411.289A4.152,4.152,0,0,1-179.928,7.782Zm-4.835-.9c.106.1.207.215.306.326s.224.247.337.369q.3.328.616.647c.372.381.751.754,1.145,1.113q.227.207.462.4l.026.023-.017,0H-192.7c0-.011,0-.014.007-.018.05-.05.1-.1.151-.15.162-.159.326-.316.494-.468.2-.185.411-.365.629-.531a3.94,3.94,0,0,1,.41-.28c.041-.024.08-.052.119-.079a8.456,8.456,0,0,0,.974-.788,5.394,5.394,0,0,0,.49-.525.321.321,0,0,0,.028-.037,5.642,5.642,0,0,1,.418-.584,5.267,5.267,0,0,1,.386-.427,3.248,3.248,0,0,1,.46-.384,1.709,1.709,0,0,1,.343-.183,1.041,1.041,0,0,1,.255-.066.71.71,0,0,1,.436.085,1,1,0,0,1,.165.113,4.371,4.371,0,0,0,.379.285,4.265,4.265,0,0,0,.475.281c.086.043.175.083.266.117a1.391,1.391,0,0,1,.174.082,3.279,3.279,0,0,1,.432.284A4.7,4.7,0,0,1-184.763,6.88Zm-2.443,6.7a5.149,5.149,0,0,0,1.745.844,6.552,6.552,0,0,1-5.473-.844Zm3.716,2.211s.259-1.355.41-2.211h0c.151.856.41,2.211.41,2.211a1.55,1.55,0,0,1-.41,1.263A1.549,1.549,0,0,1-183.49,15.792Zm4.54-2.211h3.728a6.552,6.552,0,0,1-5.473.844A5.151,5.151,0,0,0-178.95,13.582ZM-169.463.224A.2.2,0,0,1-169.5.076a.125.125,0,0,1,.04-.07.424.424,0,0,0,.034.027A1.122,1.122,0,0,1-169.1.36a.376.376,0,0,1,0,.141A.65.65,0,0,1-169.463.224Zm-2.93-6.524a.165.165,0,0,1-.229-.02.681.681,0,0,1-.221-.372.088.088,0,0,0,.012-.022.59.59,0,0,1,.4.19A.163.163,0,0,1-172.393-6.3Zm-.311-1.073.42-.142h0l-.1.431-.334.049h0Zm-.78.081a.122.122,0,0,1,.092-.038.213.213,0,0,1,.14.059.612.612,0,0,1,.219.361.106.106,0,0,0-.071.021.754.754,0,0,1-.34-.18A.165.165,0,0,1-173.483-7.293Zm-9.08-5.059c.031,0,.044,0,.044,0a.165.165,0,0,1,.18.139.166.166,0,0,1-.183.14.648.648,0,0,1-.434-.14A.553.553,0,0,1-182.563-12.352Zm-.515-.83h0l.215.388-.214.261h0l-.215-.261Zm-.556,1.113h0a.2.2,0,0,1-.142-.054.124.124,0,0,1-.038-.086.12.12,0,0,1,.038-.085.206.206,0,0,1,.148-.055.582.582,0,0,1,.431.138A.646.646,0,0,1-183.634-12.07Zm.462,2.586a3.924,3.924,0,0,0,.437-1.054,5.676,5.676,0,0,1-.145,2.524l-.2-.335-.656,1.1A3.6,3.6,0,0,1-183.172-9.483ZM-192.9-7.275a.191.191,0,0,1,.142-.056.122.122,0,0,1,.085.038.119.119,0,0,1,.029.088.2.2,0,0,1-.07.138.667.667,0,0,1-.394.188h-.022A.589.589,0,0,1-192.9-7.275Zm-.972-.241h0l.42.142.017.338h0l-.335-.049Zm.195,1.253a.122.122,0,0,1-.085-.038.12.12,0,0,1-.029-.089.207.207,0,0,1,.072-.14.6.6,0,0,1,.384-.189h.029a.65.65,0,0,1-.229.4A.19.19,0,0,1-193.678-6.263ZM-196.695.226a.646.646,0,0,1-.365.275.362.362,0,0,1,0-.132,1.136,1.136,0,0,1,.337-.337c.01-.006.019-.016.03-.023a.127.127,0,0,1,.038.081A.208.208,0,0,1-196.695.226Zm-2.554,6.122a2.115,2.115,0,0,0,.062-.238.145.145,0,0,1,.1-.061,1.03,1.03,0,0,0,.476-.193,1.462,1.462,0,0,1,.475-.282c.305-.113.305-.385.588-.893a3.285,3.285,0,0,0,.158-1.493,1.961,1.961,0,0,1-.538.528,2.886,2.886,0,0,0-.066-.617,2.019,2.019,0,0,1,0-.475c-.7.362-.781,1.029-1.1,1.38l0,0a18.908,18.908,0,0,1,.4-2.247v0c.035-.113.272-.238.555-.317a1.176,1.176,0,0,0,.413-.331v0a.246.246,0,0,0,.1.185.234.234,0,0,0,.137.043.264.264,0,0,0,.072-.01.306.306,0,0,0,.1-.052l-.065.4s-.058.171.275.242c-.078.847-.559,7.029,1.509,10.637l-.143.24a4.332,4.332,0,0,1-.6-.8.762.762,0,0,1-.079.475,1.567,1.567,0,0,0-.156.685,1.42,1.42,0,0,1-.07-.528,2.363,2.363,0,0,0,.068-.825,8.1,8.1,0,0,0-.147-.939c-.046.429-.363.429-.521.859a1.958,1.958,0,0,1-.35.634,1.172,1.172,0,0,0-.189.544c-.179-.513-.345-1.029-.5-1.535a2.248,2.248,0,0,0,.1-.616c.178-.164.35-.178.423-.282.079-.125.045-.272.125-.43a3.135,3.135,0,0,0,.271-.554c.079-.43.317-.905.114-1.368,0,0-.1.035-.218.079a1.006,1.006,0,0,1,.057-.236,4.278,4.278,0,0,0-.079-1.493,3.5,3.5,0,0,0-.475.43c-.158.192-.43.271-.509.509s-.238.238-.351.475a1.674,1.674,0,0,0-.179.639,11.054,11.054,0,0,1-.243-1.6C-199.251,6.754-199.251,6.558-199.249,6.348Zm17.765,16.3a2.192,2.192,0,0,0-1.013.255l-.014-.032a18.633,18.633,0,0,1,1.38-2.014A1.737,1.737,0,0,1-181.484,22.648Zm-2.109.255a2.2,2.2,0,0,0-1.013-.255,1.737,1.737,0,0,1-.353-1.791,18.667,18.667,0,0,1,1.38,2.014Zm12.114-4.965a.357.357,0,0,0,.049-.116,2.451,2.451,0,0,0,.159-.747,4.581,4.581,0,0,0-.238-.938c-.113-.283-.384-.938-.667-1.063,0,0-.227.747-.306,1.018a2.327,2.327,0,0,1-.283.746,3.4,3.4,0,0,0-.174.3,2.016,2.016,0,0,1,.015-.525c.045-.52-.781-1.335-.781-1.335a2.805,2.805,0,0,1-.4,1.335,2.852,2.852,0,0,0-.431,1.131,1.347,1.347,0,0,1-.316.747c-.235.32.027,1.661.058,1.815-.525.326-1.074.642-1.585.9-.152.075-.326.153-.514.232.035-.033.07-.061.105-.1a2.684,2.684,0,0,0,.78-1.21c.245-.043-.329-.105-.662-.075.195-.3.464-.7.652-1.047.147-.282-1.267.09-1.267.09-.153.062-.276.109-.376.146a6.153,6.153,0,0,0,.229-.992c-.012-.112-.6.079-1.075.283a7.123,7.123,0,0,0-1,.713c-.419.271-.476.95-.668,1.267a2.5,2.5,0,0,0-.246.528.622.622,0,0,0-.28-.526h0l-.017-.009-.021-.008a.407.407,0,0,0-.079-.021c-.09-.02-.237-.043-.468-.069a1.026,1.026,0,0,0-1.064.441,12.5,12.5,0,0,0-.518,1.661.5.5,0,0,0-.183-.039.5.5,0,0,0-.184.039,12.361,12.361,0,0,0-.517-1.661,1.026,1.026,0,0,0-1.064-.441c-.232.026-.378.049-.468.069a.407.407,0,0,0-.079.021l-.021.008-.017.009h0c-.145.074-.287.268-.292.731a1.97,1.97,0,0,0-.293-.733c-.192-.317-.249-1-.668-1.267a7.16,7.16,0,0,0-1-.713c-.476-.2-1.064-.4-1.075-.283a6.082,6.082,0,0,0,.229.992c-.1-.038-.223-.085-.376-.146,0,0-1.415-.373-1.267-.09.187.346.457.751.652,1.047-.334-.03-.908.032-.663.075a2.682,2.682,0,0,0,.781,1.21c.034.036.07.064.1.1-.188-.079-.361-.157-.514-.232-.51-.258-1.059-.574-1.585-.9.031-.154.293-1.5.059-1.815a1.352,1.352,0,0,1-.317-.747,2.852,2.852,0,0,0-.43-1.131,2.8,2.8,0,0,1-.4-1.335s-.826.814-.781,1.335a2.05,2.05,0,0,1,.015.525,3.214,3.214,0,0,0-.174-.3,2.356,2.356,0,0,1-.283-.746c-.079-.271-.305-1.018-.305-1.018-.283.125-.555.78-.668,1.063a4.574,4.574,0,0,0-.237.938,2.468,2.468,0,0,0,.158.747.388.388,0,0,0,.049.116,6.276,6.276,0,0,1-1.549-1.581.809.809,0,0,1,.166-.412,3.074,3.074,0,0,0,.588-.905,2.1,2.1,0,0,0,0-.712,6.476,6.476,0,0,1,.113-.7l-.014-.045h.659a10.523,10.523,0,0,0,10.362,1.361.71.71,0,0,1-.079.177s-1.067,1.447,1.344,1.938h0c2.411-.491,1.344-1.938,1.344-1.938a.708.708,0,0,1-.079-.179,10.521,10.521,0,0,0,10.365-1.359h.667l-.014.045a6.476,6.476,0,0,1,.113.7,2.079,2.079,0,0,0,0,.712,3.061,3.061,0,0,0,.588.905.814.814,0,0,1,.166.412A6.267,6.267,0,0,1-171.479,17.939Z" transform="translate(202.077 13.799)" fill="#fff"/>
      <path id="Trazado_356" data-name="Trazado 356" d="M-158.922,39.764a.23.23,0,0,0-.238.226.232.232,0,0,0,.238.238.239.239,0,0,0,.237-.238A.237.237,0,0,0-158.922,39.764Z" transform="translate(185.676 -6.671)" fill="#fff"/>
      <path id="Trazado_357" data-name="Trazado 357" d="M-156.761,42.416a.239.239,0,0,0-.237.238.232.232,0,0,0,.237.238.24.24,0,0,0,.238-.238A.247.247,0,0,0-156.761,42.416Z" transform="translate(184.849 -7.685)" fill="#fff"/>
      <path id="Trazado_358" data-name="Trazado 358" d="M-151.742,34.033a.239.239,0,0,0-.237.238.247.247,0,0,0,.237.237.239.239,0,0,0,.238-.237A.233.233,0,0,0-151.742,34.033Z" transform="translate(182.931 -4.481)" fill="#fff"/>
      <path id="Trazado_359" data-name="Trazado 359" d="M-148.9,35.776a.264.264,0,0,0,.261.261.256.256,0,0,0,.26-.261.263.263,0,0,0-.26-.259A.271.271,0,0,0-148.9,35.776Z" transform="translate(181.755 -5.048)" fill="#fff"/>
      <path id="Trazado_360" data-name="Trazado 360" d="M-148.075,26.628a.256.256,0,0,0,.26-.26.263.263,0,0,0-.26-.26.271.271,0,0,0-.26.26A.263.263,0,0,0-148.075,26.628Z" transform="translate(181.538 -1.452)" fill="#fff"/>
      <path id="Trazado_361" data-name="Trazado 361" d="M-146.792,18.492a.256.256,0,0,0-.26.26.263.263,0,0,0,.26.261.264.264,0,0,0,.261-.261A.256.256,0,0,0-146.792,18.492Z" transform="translate(181.048 1.458)" fill="#fff"/>
      <path id="Trazado_362" data-name="Trazado 362" d="M-144.449,11.311a.254.254,0,0,0,.26-.249.256.256,0,0,0-.26-.26.263.263,0,0,0-.26.26A.261.261,0,0,0-144.449,11.311Z" transform="translate(180.153 4.397)" fill="#fff"/>
      <path id="Trazado_363" data-name="Trazado 363" d="M-147.433,12.072a.256.256,0,0,0,.26-.26.263.263,0,0,0-.26-.26.263.263,0,0,0-.26.26A.256.256,0,0,0-147.433,12.072Z" transform="translate(181.293 4.111)" fill="#fff"/>
      <path id="Trazado_364" data-name="Trazado 364" d="M-150.1,5.4a.254.254,0,0,0-.26-.249.261.261,0,0,0-.26.249.263.263,0,0,0,.26.26A.256.256,0,0,0-150.1,5.4Z" transform="translate(182.413 6.558)" fill="#fff"/>
      <path id="Trazado_365" data-name="Trazado 365" d="M-148.13,3.874a.256.256,0,0,0,.26-.26.263.263,0,0,0-.26-.26.263.263,0,0,0-.26.26A.256.256,0,0,0-148.13,3.874Z" transform="translate(181.559 7.244)" fill="#fff"/>
      <path id="Trazado_366" data-name="Trazado 366" d="M-143.755,18.833a.253.253,0,0,0,.26.248.251.251,0,0,0,.249-.248.252.252,0,0,0-.249-.25A.254.254,0,0,0-143.755,18.833Z" transform="translate(179.788 1.423)" fill="#fff"/>
      <path id="Trazado_367" data-name="Trazado 367" d="M-184.011,39.764a.237.237,0,0,0-.238.226.24.24,0,0,0,.238.238.232.232,0,0,0,.237-.238A.229.229,0,0,0-184.011,39.764Z" transform="translate(195.264 -6.671)" fill="#fff"/>
      <path id="Trazado_368" data-name="Trazado 368" d="M-185.935,42.654a.239.239,0,0,0-.237-.238.247.247,0,0,0-.238.238.239.239,0,0,0,.238.238A.232.232,0,0,0-185.935,42.654Z" transform="translate(196.09 -7.685)" fill="#fff"/>
      <path id="Trazado_369" data-name="Trazado 369" d="M-191.192,34.033a.232.232,0,0,0-.237.238.239.239,0,0,0,.237.237.247.247,0,0,0,.238-.237A.239.239,0,0,0-191.192,34.033Z" transform="translate(198.008 -4.481)" fill="#fff"/>
      <path id="Trazado_370" data-name="Trazado 370" d="M-194.321,36.037a.263.263,0,0,0,.26-.261.271.271,0,0,0-.26-.259.263.263,0,0,0-.26.259A.256.256,0,0,0-194.321,36.037Z" transform="translate(199.212 -5.048)" fill="#fff"/>
      <path id="Trazado_371" data-name="Trazado 371" d="M-194.886,26.108a.263.263,0,0,0-.261.26.256.256,0,0,0,.261.26.262.262,0,0,0,.259-.26A.27.27,0,0,0-194.886,26.108Z" transform="translate(199.429 -1.452)" fill="#fff"/>
      <path id="Trazado_372" data-name="Trazado 372" d="M-197.248,27.136a.256.256,0,0,0-.26-.26.263.263,0,0,0-.26.26.263.263,0,0,0,.26.26A.256.256,0,0,0-197.248,27.136Z" transform="translate(200.43 -1.746)" fill="#fff"/>
      <path id="Trazado_373" data-name="Trazado 373" d="M-196.17,19.013a.264.264,0,0,0,.261-.261.256.256,0,0,0-.261-.26.256.256,0,0,0-.26.26A.263.263,0,0,0-196.17,19.013Z" transform="translate(199.919 1.458)" fill="#fff"/>
      <path id="Trazado_374" data-name="Trazado 374" d="M-198.513,11.311a.261.261,0,0,0,.26-.249.263.263,0,0,0-.26-.26.256.256,0,0,0-.26.26A.254.254,0,0,0-198.513,11.311Z" transform="translate(200.815 4.397)" fill="#fff"/>
      <path id="Trazado_375" data-name="Trazado 375" d="M-195.528,11.552a.263.263,0,0,0-.26.26.256.256,0,0,0,.26.26.256.256,0,0,0,.26-.26A.263.263,0,0,0-195.528,11.552Z" transform="translate(199.674 4.111)" fill="#fff"/>
      <path id="Trazado_376" data-name="Trazado 376" d="M-192.859,5.4a.256.256,0,0,0,.26.26.263.263,0,0,0,.261-.26.261.261,0,0,0-.261-.249A.254.254,0,0,0-192.859,5.4Z" transform="translate(198.554 6.558)" fill="#fff"/>
      <path id="Trazado_377" data-name="Trazado 377" d="M-194.832,3.874a.256.256,0,0,0,.261-.26.263.263,0,0,0-.261-.26.263.263,0,0,0-.26.26A.256.256,0,0,0-194.832,3.874Z" transform="translate(199.408 7.244)" fill="#fff"/>
      <path id="Trazado_378" data-name="Trazado 378" d="M-199.2,18.833a.254.254,0,0,0-.261-.25.251.251,0,0,0-.248.25.25.25,0,0,0,.248.248A.254.254,0,0,0-199.2,18.833Z" transform="translate(201.172 1.423)" fill="#fff"/>
      <path id="Trazado_379" data-name="Trazado 379" d="M-176.294,12.875c.113-.023.147.011.192.113l.068-.023-.068-.158.453-.192-.046-.09-.633.282Z" transform="translate(192.237 3.739)" fill="#fff"/>
      <path id="Trazado_380" data-name="Trazado 380" d="M-176.569,11.69l-.09.011.079.351.385-.034-.012-.068a.167.167,0,0,1-.1-.113.153.153,0,0,1,.113-.181.145.145,0,0,1,.192.1.122.122,0,0,1-.079.169l.023.091a.2.2,0,0,0,.136-.26.231.231,0,0,0-.295-.192.219.219,0,0,0-.17.271.2.2,0,0,0,.08.124l-.192.011Z" transform="translate(192.363 4.109)" fill="#fff"/>
      <path id="Trazado_381" data-name="Trazado 381" d="M-176.583,10.536c.125.011.158-.091.181-.136l.045-.147c.034-.113.057-.147.136-.136.1.012.113.125.1.193-.011.09-.057.192-.181.181l-.011.09a.217.217,0,0,0,.192-.057.313.313,0,0,0,.079-.2c.011-.125-.023-.283-.193-.294a.168.168,0,0,0-.192.135l-.067.2a.1.1,0,0,1-.1.079c-.1-.012-.113-.113-.1-.181a.148.148,0,0,1,.159-.158v-.09c-.08,0-.227.011-.249.26A.221.221,0,0,0-176.583,10.536Z" transform="translate(192.412 4.698)" fill="#fff"/>
      <path id="Trazado_382" data-name="Trazado 382" d="M-175.784,8.967l-.079-.023-.136.407-.226-.079.125-.362-.079-.034-.124.373-.2-.068.135-.4-.09-.034-.159.5.679.215Z" transform="translate(192.349 5.181)" fill="#fff"/>
      <path id="Trazado_383" data-name="Trazado 383" d="M-175.508,8.429l-.261-.162.114-.188a.207.207,0,0,0-.065-.3.187.187,0,0,0-.147-.024.235.235,0,0,0-.138.106l-.154.269.595.375Zm-.53-.342.106-.162a.107.107,0,0,1,.106-.065.137.137,0,0,1,.049.025c.068.045.069.1.024.171l-.09.146Z" transform="translate(192.172 5.564)" fill="#fff"/>
      <path id="Trazado_384" data-name="Trazado 384" d="M-175.315,7.044l.453.43.056-.068-.441-.43.17-.181-.068-.057-.4.419.056.057Z" transform="translate(191.936 5.95)" fill="#fff"/>
      <path id="Trazado_385" data-name="Trazado 385" d="M-174.146,7.048l-.43-.566-.068.057.419.566Z" transform="translate(191.593 6.048)" fill="#fff"/>
      <path id="Trazado_386" data-name="Trazado 386" d="M-173.394,6.464l-.034-.068-.385.192-.1-.2.339-.181-.034-.079-.351.181-.1-.192.373-.192-.034-.079-.464.237.328.633Z" transform="translate(191.418 6.293)" fill="#fff"/>
      <path id="Trazado_387" data-name="Trazado 387" d="M-172.782,6.265l-.09-.419a.664.664,0,0,1-.045-.169l.328.542.091-.022.067-.622a.708.708,0,0,1,.034.17l.091.407h0l.09-.011-.147-.7-.135.034-.068.633-.328-.542-.137.022.159.69Z" transform="translate(190.977 6.447)" fill="#fff"/>
      <path id="Trazado_388" data-name="Trazado 388" d="M-171.229,6.141c.158.011.253-.074.253-.188a.165.165,0,0,0-.122-.179.155.155,0,0,0,.1-.147c.011-.1-.052-.184-.188-.2l-.31-.008-.033.709Zm-.162-.619.154.016c.1,0,.138.03.138.1s-.056.1-.146.09h-.163Zm.154.31c.068,0,.147.023.147.114,0,.068-.056.114-.147.114l-.179-.016.008-.229Z" transform="translate(190.403 6.452)" fill="#fff"/>
      <path id="Trazado_389" data-name="Trazado 389" d="M-171.482,5.424h0Z" transform="translate(190.385 6.453)" fill="#fff"/>
      <path id="Trazado_390" data-name="Trazado 390" d="M-170.337,5.953l.228.065c.113.034.1.1.09.155a.386.386,0,0,0-.033.171l.114.033V6.368c-.023-.022-.02-.036-.008-.082l.016-.122c.034-.091,0-.125-.033-.147.046-.023.116-.036.139-.138.045-.147-.058-.211-.172-.244l-.318-.106-.187.693.09.024Zm.114-.3.2.073c.045.012.116.029.082.13s-.087.085-.155.074l-.2-.057Z" transform="translate(190.009 6.412)" fill="#fff"/>
      <path id="Trazado_391" data-name="Trazado 391" d="M-169.026,6.859l.034-.068-.362-.215.113-.2.34.192.045-.068-.339-.2.113-.181.362.215.045-.079-.453-.26-.351.611Z" transform="translate(189.619 6.237)" fill="#fff"/>
      <path id="Trazado_392" data-name="Trazado 392" d="M-168.146,7.707a.325.325,0,0,0,.473-.008.3.3,0,0,0,.073-.456l-.187-.212-.538.448Zm.457-.39c.08.09.067.188-.057.3s-.238.1-.318.008l-.106-.122.375-.318Z" transform="translate(189.178 5.838)" fill="#fff"/>
      <path id="Trazado_393" data-name="Trazado 393" d="M-167.409,8.892l.079-.034-.192-.385.215-.1.169.35.079-.045-.181-.339.2-.1.181.373.079-.034-.238-.464-.633.317Z" transform="translate(188.919 5.425)" fill="#fff"/>
      <path id="Trazado_394" data-name="Trazado 394" d="M-166.594,10l-.487.068.011.09.691-.1-.012-.067c-.113-.011-.124-.045-.158-.158l-.068.011Z" transform="translate(188.703 4.767)" fill="#fff"/>
      <path id="Trazado_395" data-name="Trazado 395" d="M-166.53,10.751a.133.133,0,0,0-.138.1.187.187,0,0,0-.171-.138.2.2,0,0,0-.162.065.279.279,0,0,0-.057.171.206.206,0,0,0,.2.236.163.163,0,0,0,.179-.1.135.135,0,0,0,.138.09c.091.011.188-.046.188-.2A.187.187,0,0,0-166.53,10.751Zm-.326.334c-.1,0-.114-.082-.114-.138a.115.115,0,0,1,.13-.122.113.113,0,0,1,.106.138A.11.11,0,0,1-166.856,11.085Zm.326,0a.133.133,0,0,1-.106-.13.1.1,0,0,1,.106-.1c.046,0,.1.023.09.114S-166.5,11.085-166.53,11.085Z" transform="translate(188.695 4.432)" fill="#fff"/>
      <path id="Trazado_396" data-name="Trazado 396" d="M-166.7,11.642l-.012.09c.045.011.159.046.125.17-.023.1-.1.124-.147.1-.091-.011-.114-.079-.136-.158l-.023-.1a.323.323,0,0,0-.238-.226l-.113.464.079.023.091-.373c.034.011.079.045.1.147l.023.078c.034.125.067.216.181.238a.212.212,0,0,0,.26-.158A.23.23,0,0,0-166.7,11.642Z" transform="translate(188.766 4.124)" fill="#fff"/>
      <path id="Trazado_397" data-name="Trazado 397" d="M-166.926,12.737l-.069.147-.441-.214-.045.09.634.294.023-.068c-.091-.068-.08-.113-.035-.226Z" transform="translate(188.856 3.683)" fill="#fff"/>
      <path id="Trazado_398" data-name="Trazado 398" d="M-172.718,15.5l.075.017.52-2.145c-.025,0-.053,0-.077-.007l-.513,2.117Z" transform="translate(190.857 3.417)" fill="#fff"/>
      <path id="Trazado_399" data-name="Trazado 399" d="M-172.839,14.554l.073.026.434-1.27-.074-.023-.428,1.249Z" transform="translate(190.903 3.447)" fill="#fff"/>
      <path id="Trazado_400" data-name="Trazado 400" d="M-174.038,15.3l.069.033,1.005-2.114c-.024-.009-.048-.019-.071-.03l-.995,2.093Z" transform="translate(191.361 3.485)" fill="#fff"/>
      <path id="Trazado_401" data-name="Trazado 401" d="M-174.335,14.9l1.09-1.8-.069-.037-1.087,1.794Z" transform="translate(191.5 3.532)" fill="#fff"/>
      <path id="Trazado_402" data-name="Trazado 402" d="M-175.389,14.867l-.012.015.061.048,1.551-1.979c-.021-.014-.039-.033-.059-.049Z" transform="translate(191.882 3.595)" fill="#fff"/>
      <path id="Trazado_403" data-name="Trazado 403" d="M-175.252,14.316l1.37-1.524,0,0c-.02-.017-.041-.032-.06-.049l-1.372,1.527Z" transform="translate(191.847 3.657)" fill="#fff"/>
      <path id="Trazado_404" data-name="Trazado 404" d="M-174.475,12.608c-.018-.019-.032-.04-.049-.06l-2.031,1.789.051.058,2.022-1.782Z" transform="translate(192.323 3.73)" fill="#fff"/>
      <path id="Trazado_405" data-name="Trazado 405" d="M-174.074,12.388h0c-.016-.02-.035-.039-.05-.061l-1.073.757-.015.011.045.064Z" transform="translate(191.81 3.814)" fill="#fff"/>
      <path id="Trazado_406" data-name="Trazado 406" d="M-174.012,12.164c-.013-.022-.024-.045-.036-.068l-.75.419.036.067Z" transform="translate(191.652 3.903)" fill="#fff"/>
      <path id="Trazado_407" data-name="Trazado 407" d="M-174.976,12.219l.031.071.793-.345c-.012-.023-.027-.044-.037-.069Z" transform="translate(191.72 3.987)" fill="#fff"/>
      <path id="Trazado_408" data-name="Trazado 408" d="M-175.122,11.882l.024.073.8-.259.018-.006-.024-.073Z" transform="translate(191.776 4.086)" fill="#fff"/>
      <path id="Trazado_409" data-name="Trazado 409" d="M-174.361,11.436c-.006-.025-.014-.049-.019-.074l-.844.184.017.076Z" transform="translate(191.815 4.183)" fill="#fff"/>
      <path id="Trazado_410" data-name="Trazado 410" d="M-175.294,11.19l.009.077.87-.093c0-.025-.006-.051-.008-.077Z" transform="translate(191.841 4.284)" fill="#fff"/>
      <path id="Trazado_411" data-name="Trazado 411" d="M-175.316,10.9l.875-.009c0-.013,0-.025,0-.038s0-.026,0-.039l-.875.009Z" transform="translate(191.85 4.391)" fill="#fff"/>
      <path id="Trazado_412" data-name="Trazado 412" d="M-175.293,10.527l.853.074h.015c0-.026,0-.051.008-.077l-.85-.074-.019,0Z" transform="translate(191.841 4.532)" fill="#fff"/>
      <path id="Trazado_413" data-name="Trazado 413" d="M-175.253,10.083l.86.187c0-.025.009-.051.015-.075l-.86-.187Z" transform="translate(191.826 4.701)" fill="#fff"/>
      <path id="Trazado_414" data-name="Trazado 414" d="M-175.139,9.715l.815.268.011,0c.007-.025.015-.049.023-.074l-.824-.271Z" transform="translate(191.782 4.84)" fill="#fff"/>
      <path id="Trazado_415" data-name="Trazado 415" d="M-174.99,9.26l-.032.07.806.343c.01-.023.022-.046.033-.069l-.79-.337Z" transform="translate(191.738 4.986)" fill="#fff"/>
      <path id="Trazado_416" data-name="Trazado 416" d="M-174.844,8.962l.766.416.007,0c.012-.023.023-.046.037-.068l-.774-.42Z" transform="translate(191.669 5.126)" fill="#fff"/>
      <path id="Trazado_417" data-name="Trazado 417" d="M-174.606,8.622l.7.5c.015-.022.033-.039.049-.059l-.7-.5Z" transform="translate(191.579 5.255)" fill="#fff"/>
      <path id="Trazado_418" data-name="Trazado 418" d="M-174.285,8.237l-.05.059.642.555.006,0c.017-.02.032-.041.049-.059l-.631-.547Z" transform="translate(191.475 5.377)" fill="#fff"/>
      <path id="Trazado_419" data-name="Trazado 419" d="M-174,7.955l-.056.054.588.615c.019-.018.04-.032.059-.049l-.578-.607Z" transform="translate(191.367 5.485)" fill="#fff"/>
      <path id="Trazado_420" data-name="Trazado 420" d="M-173.68,7.7l-.061.049.531.665c.02-.015.038-.034.06-.048l-.519-.651Z" transform="translate(191.248 5.583)" fill="#fff"/>
      <path id="Trazado_421" data-name="Trazado 421" d="M-173.289,7.473l-.066.038.419.724,0,.006c.022-.013.045-.025.068-.036l-.415-.715Z" transform="translate(191.1 5.669)" fill="#fff"/>
      <path id="Trazado_422" data-name="Trazado 422" d="M-172.937,7.314l-.07.033.35.756c.023-.011.046-.023.07-.033l-.342-.738Z" transform="translate(190.967 5.73)" fill="#fff"/>
      <path id="Trazado_423" data-name="Trazado 423" d="M-172.54,7.173l-.072.025.275.787.074-.023-.27-.771Z" transform="translate(190.816 5.784)" fill="#fff"/>
      <path id="Trazado_424" data-name="Trazado 424" d="M-172.127,7.047l-.075.016.171.826h0c.025-.006.051-.009.076-.014l-.168-.811Z" transform="translate(190.66 5.832)" fill="#fff"/>
      <path id="Trazado_425" data-name="Trazado 425" d="M-171.691,7.847l.077-.008L-171.7,7l-.077.007Z" transform="translate(190.497 5.852)" fill="#fff"/>
      <path id="Trazado_426" data-name="Trazado 426" d="M-171.328,6.984h-.077l.009.842h.012c.022,0,.043.006.065.007l-.009-.83Z" transform="translate(190.355 5.856)" fill="#fff"/>
      <path id="Trazado_427" data-name="Trazado 427" d="M-171.14,7.833v.011c.026,0,.051,0,.077.008l.082-.851-.077-.007Z" transform="translate(190.254 5.853)" fill="#fff"/>
      <path id="Trazado_428" data-name="Trazado 428" d="M-170.808,7.9l.016,0,.168-.841-.076-.015-.166.835C-170.846,7.885-170.828,7.894-170.808,7.9Z" transform="translate(190.149 5.833)" fill="#fff"/>
      <path id="Trazado_429" data-name="Trazado 429" d="M-170.292,7.195l-.073-.025-.266.785-.006.017c.025.007.049.014.074.023l.264-.782Z" transform="translate(190.061 5.785)" fill="#fff"/>
      <path id="Trazado_430" data-name="Trazado 430" d="M-169.955,7.342l-.07-.032-.339.758,0,.011c.024.011.045.025.069.037l.339-.756Z" transform="translate(189.96 5.732)" fill="#fff"/>
      <path id="Trazado_431" data-name="Trazado 431" d="M-169.729,7.468l-.4.721-.009.017.067.038.413-.738Z" transform="translate(189.873 5.671)" fill="#fff"/>
      <path id="Trazado_432" data-name="Trazado 432" d="M-169.933,8.366l0,.007c.021.015.039.034.059.049l.513-.665.012-.015-.061-.047Z" transform="translate(189.795 5.584)" fill="#fff"/>
      <path id="Trazado_433" data-name="Trazado 433" d="M-169.719,8.574l.057.052.564-.613.013-.014-.057-.052Z" transform="translate(189.711 5.488)" fill="#fff"/>
      <rect id="Rectángulo_10" data-name="Rectángulo 10" width="0.847" height="0.077" transform="matrix(0.745, -0.667, 0.667, 0.745, 20.11, 14.176)" fill="#fff"/>
      <path id="Trazado_434" data-name="Trazado 434" d="M-169.333,9.046l-.014.01c.015.02.035.038.049.059l.667-.494.015-.011-.044-.062Z" transform="translate(189.569 5.258)" fill="#fff"/>
      <path id="Trazado_435" data-name="Trazado 435" d="M-169.2,9.3l-.015.008c.014.022.025.046.037.069l.736-.415.017-.009-.038-.067Z" transform="translate(189.517 5.131)" fill="#fff"/>
      <path id="Trazado_436" data-name="Trazado 436" d="M-169.072,9.588l-.01,0c.011.023.024.044.034.069l.764-.336.017-.007-.032-.07Z" transform="translate(189.468 4.991)" fill="#fff"/>
      <path id="Trazado_437" data-name="Trazado 437" d="M-168.982,9.9c.009.024.016.049.023.074l.782-.267.018-.006-.026-.073Z" transform="translate(189.429 4.847)" fill="#fff"/>
      <path id="Trazado_438" data-name="Trazado 438" d="M-168.911,10.179c.006.025.013.049.017.075l.83-.187-.018-.075Z" transform="translate(189.402 4.707)" fill="#fff"/>
      <path id="Trazado_439" data-name="Trazado 439" d="M-168.869,10.507c0,.025.006.051.008.077l.817-.074.02,0-.007-.077Z" transform="translate(189.386 4.539)" fill="#fff"/>
      <path id="Trazado_440" data-name="Trazado 440" d="M-168.839,10.85c0,.009,0,.017,0,.025l.84.009v-.076l-.843-.009C-168.843,10.816-168.839,10.833-168.839,10.85Z" transform="translate(189.376 4.398)" fill="#fff"/>
      <path id="Trazado_441" data-name="Trazado 441" d="M-168.892,11.338c0,.026-.01.051-.016.076l.81.184.017-.075Z" transform="translate(189.401 4.192)" fill="#fff"/>
      <path id="Trazado_442" data-name="Trazado 442" d="M-168.032,11.244l.008-.076-.836-.091,0,.017c0,.02,0,.04-.006.059l.816.09Z" transform="translate(189.386 4.292)" fill="#fff"/>
      <path id="Trazado_443" data-name="Trazado 443" d="M-168.195,11.93l.025-.073-.775-.258-.019-.006,0,.006c-.007.023-.014.046-.021.068l.773.257Z" transform="translate(189.431 4.095)" fill="#fff"/>
      <path id="Trazado_444" data-name="Trazado 444" d="M-169.052,11.853c-.01.024-.024.046-.035.069l.741.334.018.008.032-.07-.756-.34Z" transform="translate(189.469 3.995)" fill="#fff"/>
      <path id="Trazado_445" data-name="Trazado 445" d="M-169.2,12.139l.7.406.017.01.038-.067-.721-.416C-169.179,12.094-169.191,12.118-169.2,12.139Z" transform="translate(189.514 3.912)" fill="#fff"/>
      <path id="Trazado_446" data-name="Trazado 446" d="M-169.351,12.363l1.048.766.045-.064L-169.3,12.3C-169.316,12.325-169.336,12.342-169.351,12.363Z" transform="translate(189.57 3.823)" fill="#fff"/>
      <path id="Trazado_447" data-name="Trazado 447" d="M-169.481,12.521c-.017.02-.031.041-.049.059l1.936,1.768.014.012.053-.057-1.945-1.773Z" transform="translate(189.639 3.74)" fill="#fff"/>
      <path id="Trazado_448" data-name="Trazado 448" d="M-169.718,12.76l1.32,1.519.059-.049-1.318-1.518v0c-.014.013-.028.024-.043.036Z" transform="translate(189.71 3.668)" fill="#fff"/>
      <path id="Trazado_449" data-name="Trazado 449" d="M-169.913,12.92l1.492,1.97.061-.047-1.493-1.973C-169.873,12.887-169.891,12.906-169.913,12.92Z" transform="translate(189.785 3.606)" fill="#fff"/>
      <path id="Trazado_450" data-name="Trazado 450" d="M-170.161,13.074l1.037,1.771.009.017.067-.039-1.046-1.785C-170.115,13.052-170.138,13.063-170.161,13.074Z" transform="translate(189.88 3.543)" fill="#fff"/>
      <path id="Trazado_451" data-name="Trazado 451" d="M-170.381,13.194l.955,2.08.008.017.07-.032-.966-2.1C-170.337,13.169-170.358,13.184-170.381,13.194Z" transform="translate(189.964 3.497)" fill="#fff"/>
      <path id="Trazado_452" data-name="Trazado 452" d="M-170.653,13.288l.41,1.24.006.019.074-.025-.416-1.257C-170.6,13.274-170.628,13.28-170.653,13.288Z" transform="translate(190.068 3.456)" fill="#fff"/>
      <path id="Trazado_453" data-name="Trazado 453" d="M-170.9,13.36l.5,2.123.075-.018-.5-2.123C-170.854,13.348-170.878,13.355-170.9,13.36Z" transform="translate(190.164 3.426)" fill="#fff"/>
      <path id="Trazado_454" data-name="Trazado 454" d="M-183.077,36.2s-.242.278-.107.514a.4.4,0,0,0,.6,0S-183.164,36.721-183.077,36.2Z" transform="translate(194.873 -5.309)" fill="#fff"/>
      <path id="Trazado_455" data-name="Trazado 455" d="M-160.466,36.712a.4.4,0,0,0,.6,0c.134-.236-.107-.514-.107-.514C-159.884,36.721-160.466,36.712-160.466,36.712Z" transform="translate(186.175 -5.309)" fill="#fff"/>
      <path id="Trazado_456" data-name="Trazado 456" d="M-179.722,35.673l-.126-.075-.311.525.126.075a.279.279,0,0,0,.415-.111A.278.278,0,0,0-179.722,35.673Z" transform="translate(193.701 -5.079)" fill="#fff"/>
      <path id="Trazado_457" data-name="Trazado 457" d="M-178.073,36.562a.3.3,0,0,0-.4.152.306.306,0,0,0,.134.416.305.305,0,0,0,.405-.161A.3.3,0,0,0-178.073,36.562Z" transform="translate(193.07 -5.437)" fill="#fff"/>
      <path id="Trazado_458" data-name="Trazado 458" d="M-172.285,38.058a.3.3,0,0,0-.313.292.305.305,0,0,0,.281.333.3.3,0,0,0,.313-.3A.3.3,0,0,0-172.285,38.058Z" transform="translate(190.811 -6.019)" fill="#fff"/>
      <path id="Trazado_459" data-name="Trazado 459" d="M-167.552,38.121l-.175.046.07.266.175-.046a.128.128,0,0,0,.1-.167A.131.131,0,0,0-167.552,38.121Z" transform="translate(188.95 -6.041)" fill="#fff"/>
      <path id="Trazado_460" data-name="Trazado 460" d="M-167.556,37.688a.111.111,0,0,0-.148-.084l-.161.042.061.234.164-.043A.114.114,0,0,0-167.556,37.688Z" transform="translate(189.002 -5.844)" fill="#fff"/>
      <path id="Trazado_461" data-name="Trazado 461" d="M-165.708,36.955a.219.219,0,0,0-.109.024l-.121.048.107.268.15-.061a.134.134,0,0,0,.078-.188A.13.13,0,0,0-165.708,36.955Z" transform="translate(188.266 -5.597)" fill="#fff"/>
      <path id="Trazado_462" data-name="Trazado 462" d="M-163.888,36.266l.043.269.216-.117-.2-.182c-.032-.03-.082-.086-.082-.086h0S-163.9,36.223-163.888,36.266Z" transform="translate(187.493 -5.29)" fill="#fff"/>
      <path id="Trazado_463" data-name="Trazado 463" d="M-168.881,35.842l-.255-.1a.959.959,0,0,1,.558-.049l-.311-.281a2.052,2.052,0,0,0-2.319-.3,9.261,9.261,0,0,1-4.574,1.3,9.265,9.265,0,0,1-4.574-1.3,2.051,2.051,0,0,0-2.318.3l-.312.281a.959.959,0,0,1,.558.049l-.255.1c.326.129.192.368.192.368l.4-.351a14.327,14.327,0,0,1,1.74.871,8.993,8.993,0,0,0,4.574,1.158h0a8.99,8.99,0,0,0,4.574-1.158,14.358,14.358,0,0,1,1.74-.871l.4.351S-169.207,35.971-168.881,35.842Zm-12.276.171-.23-.136.411-.694.23.137a.376.376,0,0,1,.147.554A.377.377,0,0,1-181.157,36.013Zm.571.323-.1-.054.382-.71.1.053Zm.488.258a.415.415,0,0,1-.2-.56.409.409,0,0,1,.552-.2.408.408,0,0,1,.2.549A.413.413,0,0,1-180.1,36.594Zm1.124-.242a.283.283,0,0,0-.14-.129.132.132,0,0,0-.179.057c-.06.156.32.255.225.5a.232.232,0,0,1-.321.119.378.378,0,0,1-.211-.2l.091-.057a.316.316,0,0,0,.16.155.125.125,0,0,0,.173-.061c.063-.162-.314-.269-.225-.5a.238.238,0,0,1,.324-.116.328.328,0,0,1,.183.158Zm.669.9a.293.293,0,0,1-.229-.372l.135-.5.109.029-.135.5a.185.185,0,0,0,.146.242.187.187,0,0,0,.25-.137l.135-.5.109.029-.136.5A.293.293,0,0,1-178.3,37.254Zm1.148.229-.109-.02-.262-.58c-.022-.049-.046-.129-.046-.129h0s0,.073-.013.118l-.093.517-.111-.02.143-.8.111.02.261.581c.022.048.046.127.046.127h0s0-.072.013-.116l.093-.518.112.02Zm.3.033-.112-.013.095-.8.112.014Zm.56.059a.413.413,0,0,1-.392-.443.407.407,0,0,1,.435-.389.405.405,0,0,1,.391.431A.412.412,0,0,1-176.292,37.574Zm1.1-.015-.38-.507c-.032-.043-.072-.115-.072-.115h0s.011.071.012.117l.022.522-.113,0-.033-.8.112,0,.379.508c.031.042.072.113.072.113h0s-.01-.071-.012-.116l-.021-.523.112,0,.033.8Zm.751-.075-.127-.8.112-.018.111.7.356-.057.015.1Zm.563-.1-.164-.792.111-.023.164.793Zm.581-.137-.279.074-.205-.78.273-.072a.208.208,0,0,1,.279.139.191.191,0,0,1-.053.194v0a.2.2,0,0,1,.178.155A.232.232,0,0,1-173.294,37.249Zm.405-.112-.255-.767.446-.148.031.094-.339.112.08.24.275-.091.032.094-.275.091.082.247.356-.119.031.094Zm1.016-.371-.277-.234-.16.064.12.3-.105.042-.3-.747.229-.091a.393.393,0,0,1,.146-.039.22.22,0,0,1,.207.151.221.221,0,0,1-.053.256v0a.241.241,0,0,1,.036.025l.275.226Zm.4-.179-.3-.641-.251.118-.042-.089.6-.285.042.089-.25.119.3.641Zm.81-.419-.183-.165-.268.145.041.243-.1.056-.13-.849.1-.057.641.571Zm.411-.245-.227.142-.427-.686.227-.141a.377.377,0,0,1,.56.125A.377.377,0,0,1-170.254,35.923Z" transform="translate(194.781 -4.807)" fill="#fff"/>
      <path id="Trazado_464" data-name="Trazado 464" d="M-163.074,35.564l-.124.077.323.518.125-.077a.279.279,0,0,0,.093-.419A.278.278,0,0,0-163.074,35.564Z" transform="translate(187.219 -5.045)" fill="#fff"/>
    </g>
  </g>
</svg>
