<svg xmlns="http://www.w3.org/2000/svg" width="715.257" height="120.858" viewBox="0 0 715.257 120.858">
  <g id="Logo" transform="translate(-690.202 -30)">
    <g id="Capa_1-2" data-name="Capa 1-2" transform="translate(690.202 30)">
      <path id="Trazado_165" data-name="Trazado 165" d="M714.687,86.99a28.026,28.026,0,0,1-11.14,2.618c-9.105,0-13.346-7.025-13.346-13.092,0-6.239,4.366-14.052,14.511-14.052,4.443,0,7.4,1.41,8.269,1.41a1.453,1.453,0,0,0,.956-.288h.6v6.732h-.847c-1.123-5.195-4.654-6.817-8.522-6.817-7.314,0-11.056,6.072-11.056,12.762,0,8.522,6.006,12.306,10.762,12.306a14.024,14.024,0,0,0,6.348-1.58V81.752c0-2.4-.835-3.159-3.327-3.159h-1.519v-.75H717.6v.75c-2.078.121-2.914.828-2.914,2.619Z" transform="translate(-690.202 -19.432)" fill="#fff"/>
      <path id="Trazado_166" data-name="Trazado 166" d="M725.786,89.607c-8.144,0-15.014-5.236-15.014-13.014,0-8.269,6.36-14.13,15.212-14.13,7.855,0,14.594,5.363,14.594,12.846C740.59,83.693,733.851,89.607,725.786,89.607ZM724.945,63.5c-7.314,0-10.209,6.817-10.209,11.808,0,7.772,5.28,13.261,11.975,13.261s10.018-6.006,10.018-11.891C736.68,68.949,731.774,63.5,724.945,63.5Z" transform="translate(-683.506 -19.432)" fill="#fff"/>
      <path id="Trazado_167" data-name="Trazado 167" d="M737.45,67.417c0-2.4-.288-3.6-3.2-3.6H732.8v-.786c1.165-.042,4.03-.211,5.237-.252,2.288-.085,5.447-.127,6.234-.127,3.664,0,6.864.541,8.36,1.622a5.273,5.273,0,0,1,2.533,4.618,5.454,5.454,0,0,1-4.738,5.069v.066c3.909,1.165,6.192,3.7,6.192,6.942s-2.283,7.9-9.008,7.9H732.424v-.787h.956c3.4,0,4.071-.793,4.071-3.411Zm3.454,6.4h4.528c3.994,0,6-1.573,6-4.805,0-2.906-1.747-5.567-6.858-5.567-.912,0-2.618.085-3.657.127Zm0,9.645c0,3.159,1.242,4.283,4.737,4.283,5.489,0,7.069-3.405,7.069-6.649s-2.456-6.467-7.321-6.467H740.9Z" transform="translate(-676.457 -19.372)" fill="#fff"/>
      <path id="Trazado_168" data-name="Trazado 168" d="M761.342,88.789h-10.1V88c2.582-.126,3.123-.793,3.123-3.6V66.724c0-2.247-.793-2.871-3.123-3v-.786h10.1v.786c-2.618,0-3.531.6-3.531,3.37V84.741c0,2.45.667,3.285,3.531,3.285Z" transform="translate(-670.332 -19.279)" fill="#fff"/>
      <path id="Trazado_169" data-name="Trazado 169" d="M778.835,79.437h-.793c-.33-2.955-1.123-3.285-2.829-3.285h-7.02V85c0,1.915.7,2.288,2.24,2.288h6.4c2.912,0,3.783-1.123,4.8-4.7h.752l-.667,6.193H759.672V88h1.159c3.327,0,3.91-.919,3.91-3.411V67.047c0-2.33-.541-3.327-3.327-3.327H760.5v-.786h19.957l.33,5.777h-.75c-.541-3.537-1.58-4.282-3.075-4.282h-8.768V74.639h7.442c1.5,0,2.2-.708,2.4-3.116h.793Z" transform="translate(-667.587 -19.279)" fill="#fff"/>
      <path id="Trazado_170" data-name="Trazado 170" d="M783.781,84.971c0,2.5,1,3.123,3.327,3.123h.956v.787H776.286v-.787H777c2.45,0,3.32-.667,3.32-3.453V67.14c0-2.576-.7-3.327-3.116-3.327h-.913v-.786c1,0,3.531-.168,5.237-.252s2.535-.127,5.237-.127c7.694,0,11.14,3.165,11.14,7.406,0,3.116-2.12,5.736-5.525,6.732a50.113,50.113,0,0,1,4.739,4.324l3.285,3.285c2.45,2.451,4.984,3.987,8.185,4.2v.744c-7.272.337-9.146-1.242-12.846-4.942l-2.744-2.745a30.136,30.136,0,0,0-4.276-3.7c-1.046.042-1.706.085-2.829.085-.913,0-1.454-.042-2.121-.085Zm0-7.807a17.994,17.994,0,0,0,2.577.085c4.613,0,7.651-1.953,7.651-6.943,0-3.868-1.747-6.858-8.15-6.858a17.007,17.007,0,0,0-2.078.084Z" transform="translate(-662.178 -19.372)" fill="#fff"/>
      <path id="Trazado_171" data-name="Trazado 171" d="M824.94,89.4,803.4,66.866V84.7c0,3,.667,3.6,4.2,3.6V89.1h-9.65v-.793h.167c2.577,0,3.412-.871,3.412-2.786V65.1a6.122,6.122,0,0,0-3.477-1.056v-.793h6.527l19.58,20.419V67.119c0-2.534-.752-3-4.072-3.075v-.793h9.723v.793c-3.116,0-3.778.541-3.778,2.162V89.4Z" transform="translate(-655.123 -19.175)" fill="#fff"/>
      <path id="Trazado_172" data-name="Trazado 172" d="M836.258,89.607c-8.149,0-15.014-5.236-15.014-13.014,0-8.269,6.36-14.13,15.218-14.13,7.855,0,14.588,5.363,14.588,12.846C851.057,83.693,844.324,89.607,836.258,89.607ZM835.388,63.5c-7.321,0-10.209,6.817-10.209,11.808,0,7.772,5.28,13.261,11.975,13.261s10.018-6.006,10.018-11.891C847.153,68.949,842.246,63.5,835.388,63.5Z" transform="translate(-647.542 -19.432)" fill="#fff"/>
      <path id="Trazado_173" data-name="Trazado 173" d="M855.311,67.183c0-2.7-.7-3.37-3.159-3.37h-.829v-.786c1.538-.085,3.574-.168,5.862-.252s4.8-.127,6.984-.127c10.973,0,15.838,5.574,15.838,12.432,0,6.276-4.865,13.813-15.381,13.813h-13.3v-.787h.708c2.24,0,3.279-.6,3.279-3.038ZM858.764,85.8c0,1.706.127,2.288,3.412,2.288,5.567,0,7.9-.793,10.473-3.368A12.822,12.822,0,0,0,876.1,75.74a12.517,12.517,0,0,0-3.32-8.935c-1.917-1.917-4.865-3.37-10.685-3.37a33.208,33.208,0,0,0-3.327.168Z" transform="translate(-637.75 -19.372)" fill="#fff"/>
      <path id="Trazado_174" data-name="Trazado 174" d="M891.443,79.437h-.793c-.33-2.955-1.123-3.285-2.829-3.285H880.8V85c0,1.915.7,2.288,2.239,2.288h6.4c2.914,0,3.784-1.123,4.805-4.7H895l-.667,6.193H872.278V88h1.16c3.327,0,3.909-.919,3.909-3.411V67.047c0-2.33-.54-3.327-3.327-3.327h-.912v-.786h19.956l.33,5.777h-.75c-.541-3.537-1.579-4.282-3.075-4.282H880.8V74.639h7.44c1.5,0,2.2-.708,2.4-3.116h.793Z" transform="translate(-630.929 -19.279)" fill="#fff"/>
      <path id="Trazado_175" data-name="Trazado 175" d="M1052.837,78.857h-.786c-.337-2.955-1.124-3.285-2.829-3.285H1042.2v8.852c0,1.917.708,2.288,2.246,2.288h6.4c2.907,0,3.783-1.123,4.805-4.7h.744l-.66,6.193h-22.065v-.787h1.153c3.327,0,3.91-.919,3.91-3.411V66.467c0-2.33-.541-3.327-3.327-3.327h-.92v-.786h19.957l.33,5.777h-.733c-.54-3.537-1.579-4.281-3.081-4.281h-8.769V74.059h7.442c1.5,0,2.2-.708,2.4-3.116h.8Z" transform="translate(-578.39 -19.467)" fill="#fff"/>
      <path id="Trazado_176" data-name="Trazado 176" d="M1070.471,88.209H1051.89v-.787h1.375c1.91,0,2.619-.6,2.619-2.744V66.258c0-2.2-.667-3.118-3.286-3.118h-.6v-.786h12.264v.786h-1.538c-2.7,0-3.411.294-3.411,2.871V85.176c0,1.123.456,1.536,1.663,1.536h6.114c2.451,0,3.2-.954,5.819-4.569h.745Z" transform="translate(-572.457 -19.467)" fill="#fff"/>
      <path id="Trazado_177" data-name="Trazado 177" d="M1077.592,82.037a7.209,7.209,0,0,0,7.027,5.862c2.781,0,5.736-1.621,5.736-4.906,0-6.006-13.344-7.807-13.344-15.086,0-3.454,3.159-6.006,7.4-6.006,3.489,0,4.2,1.039,5.651,1.039a.8.8,0,0,0,.75-.415h.667l.7,5.278h-.7a7.339,7.339,0,0,0-6.7-4.948c-2.744,0-4.654,1.58-4.654,3.91,0,5.915,13.327,7.5,13.327,15.146,0,4.079-3.6,7.112-8.481,7.112-2.288,0-5.195-1.124-5.777-1.124a1.012,1.012,0,0,0-.835.457h-.7l-.876-6.319Z" transform="translate(-564.354 -19.615)" fill="#fff"/>
      <path id="Trazado_178" data-name="Trazado 178" d="M1098.772,76.891l-2.4,6.522a11.664,11.664,0,0,0-.835,2.619c0,1.123,1.08,1.543,3.37,1.543h.667v.787h-9.61v-.787c2.7-.042,3.16-.5,4.487-4.12l7.566-20.66-.371-.912h3.6l8.69,23.074c.829,2.2,1.706,2.618,3.783,2.618v.787h-11.41v-.787h1.08c2.373,0,3.244-.252,3.244-1.417a4.633,4.633,0,0,0-.451-1.675l-2.786-7.561Zm4.24-11.519-3.519,9.687h7.206Z" transform="translate(-560.064 -19.621)" fill="#fff"/>
      <path id="Trazado_179" data-name="Trazado 179" d="M1129.347,88.209h-18.582v-.787h1.369c1.917,0,2.625-.6,2.625-2.744V66.258c0-2.2-.667-3.118-3.285-3.118h-.6v-.786h12.264v.786H1121.6c-2.7,0-3.412.294-3.412,2.871V85.176c0,1.123.458,1.536,1.664,1.536h6.108c2.456,0,3.2-.954,5.819-4.569h.751Z" transform="translate(-553.291 -19.467)" fill="#fff"/>
      <path id="Trazado_180" data-name="Trazado 180" d="M1135.116,88.875l-9.008-22.492c-1.044-2.618-1.543-3.244-4.077-3.244v-.786h11.41v.786c-3.825.085-4.739.956-3.951,2.871l7.483,18.617,6.613-17.163a8.072,8.072,0,0,0,.7-2.577c0-1.25-1.039-1.748-3.863-1.748v-.786h9.646v.786c-2.162,0-3.286,1-4.283,3.6l-8.563,22.16Z" transform="translate(-549.624 -19.467)" fill="#fff"/>
      <path id="Trazado_181" data-name="Trazado 181" d="M1148.338,76.891l-2.4,6.522a11.953,11.953,0,0,0-.83,2.619c0,1.123,1.082,1.543,3.37,1.543h.661v.787h-9.61v-.787c2.7-.042,3.165-.5,4.492-4.12l7.568-20.66-.378-.912h3.6l8.684,23.074c.835,2.2,1.706,2.618,3.784,2.618v.787h-11.411v-.787h1.082c2.366,0,3.237-.252,3.237-1.417a4.631,4.631,0,0,0-.456-1.706l-2.781-7.561Zm4.24-11.519-3.538,9.687h7.207Z" transform="translate(-543.928 -19.621)" fill="#fff"/>
      <path id="Trazado_182" data-name="Trazado 182" d="M1164.152,66.6c0-2.7-.708-3.37-3.159-3.37h-.828v-.786c1.537-.085,3.6-.168,5.861-.252s4.8-.127,6.979-.127c10.978,0,15.843,5.574,15.843,12.432,0,6.276-4.865,13.813-15.382,13.813h-13.3v-.787h.7c2.246,0,3.285-.6,3.285-3.038Zm3.453,18.617c0,1.706.121,2.289,3.405,2.289,5.574,0,7.9-.793,10.48-3.37a12.82,12.82,0,0,0,3.448-9.008,12.5,12.5,0,0,0-3.327-8.937c-1.91-1.915-4.865-3.37-10.684-3.37a33.178,33.178,0,0,0-3.322.168Z" transform="translate(-537.209 -19.561)" fill="#fff"/>
      <path id="Trazado_183" data-name="Trazado 183" d="M1198.2,89.029c-8.149,0-15.014-5.237-15.014-13.016,0-8.269,6.36-14.13,15.213-14.13,7.861,0,14.593,5.363,14.593,12.846C1213,83.125,1206.265,89.029,1198.2,89.029Zm-.876-26.108c-7.316,0-10.209,6.817-10.209,11.808,0,7.772,5.278,13.261,11.969,13.261S1209.1,81.984,1209.1,76.1C1209.088,68.369,1204.187,62.921,1197.323,62.921Z" transform="translate(-529.715 -19.621)" fill="#fff"/>
      <path id="Trazado_184" data-name="Trazado 184" d="M1212.915,84.422c0,2.5,1,3.123,3.327,3.123h.954v.786h-11.766v-.786h.709c2.45,0,3.321-.667,3.321-3.453V66.56c0-2.576-.7-3.327-3.116-3.327h-.913v-.786c1,0,3.531-.168,5.237-.252s2.534-.127,5.237-.127c7.693,0,11.14,3.16,11.14,7.4,0,3.123-2.12,5.742-5.525,6.739a49.445,49.445,0,0,1,4.739,4.324l3.284,3.285c2.451,2.451,4.986,3.989,8.187,4.2v.744c-7.273.337-9.141-1.242-12.847-4.942l-2.738-2.745a30.356,30.356,0,0,0-4.281-3.7c-1.039.042-1.706.078-2.829.078-.913,0-1.453-.036-2.119-.078Zm0-7.807a17.781,17.781,0,0,0,2.576.084c4.618,0,7.651-1.951,7.651-6.942,0-3.868-1.747-6.858-8.149-6.858a16.977,16.977,0,0,0-2.077.084Z" transform="translate(-522.473 -19.561)" fill="#fff"/>
      <path id="Trazado_185" data-name="Trazado 185" d="M964.743,30l1.664,3.369,3.718.535-2.691,2.624.637,3.7-3.327-1.748-3.321,1.748.637-3.7-2.69-2.624,3.718-.535Z" transform="translate(-602.577 -30)" fill="#fff"/>
      <path id="Trazado_186" data-name="Trazado 186" d="M983.18,34.7l1.664,3.369,3.718.541-2.69,2.618.636,3.7-3.327-1.742-3.327,1.742.637-3.7-2.69-2.618,3.717-.541Z" transform="translate(-596.577 -28.469)" fill="#fff"/>
      <path id="Trazado_187" data-name="Trazado 187" d="M997.316,46.147l1.664,3.363,3.717.541-2.69,2.618.637,3.705-3.327-1.748-3.327,1.748.636-3.705-2.69-2.618,3.718-.541Z" transform="translate(-591.975 -24.743)" fill="#fff"/>
      <path id="Trazado_188" data-name="Trazado 188" d="M1005.39,62.526l1.664,3.363,3.718.541-2.691,2.624.637,3.7-3.327-1.748-3.327,1.748.637-3.7-2.691-2.624,3.718-.541Z" transform="translate(-589.347 -19.411)" fill="#fff"/>
      <path id="Trazado_189" data-name="Trazado 189" d="M1005.7,81.537l1.663,3.363,3.718.541-2.691,2.618.637,3.705-3.327-1.748-3.321,1.748.637-3.705-2.691-2.618,3.717-.541Z" transform="translate(-589.245 -13.223)" fill="#fff"/>
      <path id="Trazado_190" data-name="Trazado 190" d="M997.334,97.993l1.657,3.363,3.718.541-2.691,2.624.637,3.7-3.321-1.748-3.327,1.748.637-3.7-2.69-2.624,3.717-.541Z" transform="translate(-591.969 -7.866)" fill="#fff"/>
      <path id="Trazado_191" data-name="Trazado 191" d="M983.271,109.442l1.658,3.363,3.717.541-2.69,2.624.637,3.7-3.321-1.748-3.327,1.748.637-3.7-2.691-2.624,3.717-.541Z" transform="translate(-596.548 -4.138)" fill="#fff"/>
      <path id="Trazado_192" data-name="Trazado 192" d="M964.74,113.46l1.658,3.363,3.724.541-2.691,2.624.631,3.7-3.321-1.748-3.327,1.748.637-3.7-2.691-2.624,3.718-.541Z" transform="translate(-602.58 -2.83)" fill="#fff"/>
      <path id="Trazado_193" data-name="Trazado 193" d="M946.616,109.451l1.663,3.369,3.718.54-2.691,2.618.637,3.7-3.327-1.748-3.321,1.748.637-3.7-2.69-2.618,3.717-.54Z" transform="translate(-608.478 -4.135)" fill="#fff"/>
      <path id="Trazado_194" data-name="Trazado 194" d="M932.549,98.011l1.664,3.369,3.718.541-2.691,2.618.637,3.7-3.327-1.748-3.327,1.748.637-3.7-2.69-2.618,3.717-.541Z" transform="translate(-613.06 -7.86)" fill="#fff"/>
      <path id="Trazado_195" data-name="Trazado 195" d="M924.172,81.659l1.663,3.363,3.718.541-2.691,2.618.631,3.7-3.321-1.742-3.327,1.742.637-3.7-2.691-2.618,3.718-.541Z" transform="translate(-615.787 -13.183)" fill="#fff"/>
      <path id="Trazado_196" data-name="Trazado 196" d="M924.172,62.526l1.663,3.363,3.718.541-2.691,2.624.631,3.7-3.321-1.748-3.327,1.748.637-3.7-2.691-2.624,3.718-.541Z" transform="translate(-615.787 -19.411)" fill="#fff"/>
      <path id="Trazado_197" data-name="Trazado 197" d="M932.123,46.166l1.664,3.369,3.717.541-2.69,2.618.637,3.7-3.327-1.748L928.8,56.393l.637-3.7-2.691-2.618,3.718-.541Z" transform="translate(-613.198 -24.737)" fill="#fff"/>
      <path id="Trazado_198" data-name="Trazado 198" d="M946.593,34.716l1.664,3.369,3.718.534-2.691,2.624.637,3.7L946.593,43.2l-3.321,1.748.631-3.7-2.685-2.624,3.718-.534Z" transform="translate(-608.486 -28.465)" fill="#fff"/>
      <path id="Trazado_199" data-name="Trazado 199" d="M985.044,82.18h-.054a.463.463,0,1,0,0,.925h.114a.463.463,0,1,0,0-.925Z" transform="translate(-594.387 -13.013)" fill="#fff"/>
      <path id="Trazado_200" data-name="Trazado 200" d="M1005.317,86.654a3.109,3.109,0,0,0-1.123.42,1.786,1.786,0,0,1-.649.27,1.733,1.733,0,0,0,.168-.889c-.083-.847-.083-2.228-.083-2.228s-.277.842-.679,1.046-1.2.48-1.328.762-.7.276-.919,1.123a3.2,3.2,0,0,1-.342,1.039,2.107,2.107,0,0,1-.18.289,19.072,19.072,0,0,0,.463-3.694v-.6a6.327,6.327,0,0,0,.48-.463c.18-.294,2.33-1.033,2.631-1.616s.463-.96.6-1.2a4.189,4.189,0,0,0,.342-1.561,12.447,12.447,0,0,0-.24-2.15,2.925,2.925,0,0,0-.883.685,1.026,1.026,0,0,1-.24.24,1.628,1.628,0,0,0-.1-.6c-.3-.738-.757-1.723-.757-1.723a11.29,11.29,0,0,0-.6,1c-.36.721-.721.781-.781,1.063s-.487.481-.643,1.063c-.06.2-.09.355-.114.463a32.876,32.876,0,0,0-.6-3.387c.1-.325.216-1.034.51-1.267a1.668,1.668,0,0,0,.48-1.405,5.177,5.177,0,0,0-.2-1.322c-.06-.342-1.123-1.8-1.039-2.228l-.727,1.652a8.668,8.668,0,0,0-1.766-1.352c-.259-.456-.529-.919-.81-1.375,0-.138.048-.427.09-.733a3.344,3.344,0,0,0,.036-1.441,11.532,11.532,0,0,1-.559-1.039,2.1,2.1,0,0,0-.565-1.045c-.342-.361-.84-.842-.84-.842s-.138.6-.264,1.124a1.949,1.949,0,0,0-.361-.139c-.078-.036-.258-.126-.451-.233-.247-.325-.48-.638-.7-.913a.452.452,0,0,0,.2-.378.463.463,0,1,0-.463.461.5.5,0,0,0,.252-.077c.066.1.247.384.517.81l-.547-.312c-.179-.121-.276,1.255.139,2.017l-.2-.054a4.913,4.913,0,0,0-1.6-.138c.2,0,.7.541.763.823a2.4,2.4,0,0,0,.84,1.045,4.94,4.94,0,0,1,1.046.781,3.277,3.277,0,0,0,1.766.342,1.006,1.006,0,0,0,.6.151c.257.444.516.9.769,1.351a4.6,4.6,0,0,0-.163,1.2h0c-.342-.06-1.526-.342-1.526-.342a4.11,4.11,0,0,0,.6,1.747.459.459,0,0,0-.131.24.563.563,0,0,0,.1.422,1.438,1.438,0,0,0,.66.546l-5.736,4.036a78.668,78.668,0,0,0-.565-14.786c.7-.264.512-.6.512-.6l-.27-.679a.6.6,0,0,0,.221.054.436.436,0,0,0,.325-.139.505.505,0,0,0-.072-.7,1.49,1.49,0,0,0-.445-.312l.818-.121.468-1.975h0l-1.922.648-.042.828a1.316,1.316,0,0,0-.347-.4.469.469,0,1,0-.766.539.458.458,0,0,0,.166.145,1.45,1.45,0,0,0,.708.372.188.188,0,0,0,0,.054l-9.609,10.6L973.288,61c.391-2.587-1-6.515-1.05-6.671a4.281,4.281,0,0,0,.114-1.063.887.887,0,0,0,.6-.6h0a10.8,10.8,0,0,0-.733-.823,1.857,1.857,0,0,0,.342.042h.042a.51.51,0,0,0,.541-.469.5.5,0,0,0-.529-.461h0a1.384,1.384,0,0,0-.541.06l.522-.636-.985-1.8h0l-.978,1.8.522.642a1.43,1.43,0,0,0-.529-.065.6.6,0,0,0-.408.162.426.426,0,0,0-.126.306.406.406,0,0,0,.133.306.544.544,0,0,0,.4.156h.33a7.362,7.362,0,0,0-.522.553.672.672,0,0,0-.138.162l-.03.042v.114a.94.94,0,0,0,.294.354c-.733,1.357-2.534,5.3-1.5,9.4l-5.484,9.165-9.657-10.643a1.455,1.455,0,0,0,.769-.378.608.608,0,0,0,.192-.4.412.412,0,0,0-.109-.313.424.424,0,0,0-.3-.138.6.6,0,0,0-.4.144,1.535,1.535,0,0,0-.354.414l-.048-.828-1.929-.648h0l.469,1.975.822.121a1.457,1.457,0,0,0-.437.306.6.6,0,0,0-.192.39.42.42,0,0,0,.414.457h0a.516.516,0,0,0,.223-.054l-.27.679s-.192.313.505.6a79.555,79.555,0,0,0-.559,14.786l-5.736-4.036a1.482,1.482,0,0,0,.655-.541.561.561,0,0,0,.109-.384.419.419,0,0,0-.133-.27,4.158,4.158,0,0,0,.6-1.759s-1.2.282-1.526.342h0a4.651,4.651,0,0,0-.162-1.2c.252-.451.51-.907.769-1.351a1,1,0,0,0,.6-.151,3.244,3.244,0,0,0,1.766-.342,5.105,5.105,0,0,1,1.046-.781,2.406,2.406,0,0,0,.907-1.075c.06-.282.558-.823.762-.823a4.947,4.947,0,0,0-1.609.139l-.192.053c.414-.762.311-2.138.131-2.017l-.539.313c.27-.427.449-.716.516-.811a.484.484,0,0,0,.247.078.463.463,0,1,0-.463-.463.444.444,0,0,0,.211.378c-.223.277-.457.6-.7.913-.192.109-.372.2-.456.235a1.594,1.594,0,0,0-.354.138c-.127-.505-.265-1.123-.265-1.123s-.5.48-.84.84a2.02,2.02,0,0,0-.565,1.045,10.219,10.219,0,0,1-.565,1.039,3.344,3.344,0,0,0,.085,1.466c.041.306.072.6.083.733-.276.456-.546.919-.811,1.375a8.869,8.869,0,0,0-1.766,1.351c-.2-.468-.72-1.65-.72-1.65.078.42-.985,1.885-1.046,2.227a5.5,5.5,0,0,0-.2,1.322,1.667,1.667,0,0,0,.48,1.405c.289.235.408.944.51,1.267-.233,1.022-.437,2.15-.6,3.388a3.893,3.893,0,0,0-.107-.463c-.163-.6-.6-.764-.643-1.063s-.42-.342-.781-1.063c-.223-.379-.6-1-.6-1s-.463.985-.763,1.725a1.774,1.774,0,0,0-.1.6,1.088,1.088,0,0,1-.233-.241,2.94,2.94,0,0,0-.883-.684,12.452,12.452,0,0,0-.241,2.15,4.056,4.056,0,0,0,.337,1.561c.144.24.3.643.6,1.2s2.456,1.322,2.631,1.616a5.959,5.959,0,0,0,.487.463v.6A18.916,18.916,0,0,0,943.1,88.5a2.614,2.614,0,0,1-.174-.288,2.922,2.922,0,0,1-.343-1.039c-.221-.847-.781-.847-.924-1.123s-.9-.565-1.322-.764-.685-1.045-.685-1.045,0,1.381-.078,2.228a1.684,1.684,0,0,0,.168.888,1.728,1.728,0,0,1-.653-.27,3.1,3.1,0,0,0-1.124-.42,18.342,18.342,0,0,0,.42,2.223,4.194,4.194,0,0,0,.847,1.465c.2.223.481.565.961,1.046s1.76.6,3.153,1.062a1.849,1.849,0,0,1,.978.74c.049.174.1.335.12.444.156.6.366,1.351.6,2.15a2.629,2.629,0,0,0-1.844-.762c-.486-.085-2.373-.565-2.373-.565a4.839,4.839,0,0,1,1.01,2.089,6.279,6.279,0,0,0-2.193,0,7.028,7.028,0,0,1,1.868,2.1,7.544,7.544,0,0,0,1.2,2.084c.223.144.84.907,1.267,1.328s2.084.2,2.648.2a5.312,5.312,0,0,1,1.274.408,13.163,13.163,0,0,0,1.771,1.844,4.769,4.769,0,0,1-1.538-1.009c-.276-.366.036,1.237.349,1.759a2.45,2.45,0,0,1-1.2-.354c-.463-.361-.06,1.267.439,1.723a14.833,14.833,0,0,1,1.153,1.2c-.908.18-2.175.492-2.56.264-.5-.282.559.7,1.2.942.924.343.8.944,1.8,1.262a8.019,8.019,0,0,0,2.81.643,9.039,9.039,0,0,1,1.526-.379c.6-.078,1.64-.888,2.817-1.033,1.129.691,2.276,1.334,3.4,1.873l.18.085a3.652,3.652,0,0,0-.4.054,7.52,7.52,0,0,1-2.57.282c-.427-.2.439.924.954,1.344a8.358,8.358,0,0,1-2.354.18c-.565-.119,1.124,1.5,1.8,1.682h.077a4.5,4.5,0,0,1-1.279.288c-.6-.036,1.844,1.55,2.511,1.447,2.126-.3,4.132.42,5.117,0,.878-.342,1.4-.6,1.844-.72s.685-.565.961-.764a3.433,3.433,0,0,1,1.1-.864l.037.066a19.727,19.727,0,0,0,2.24,0,3.361,3.361,0,0,0-.913.546c-1.1.349-1.982.643-2.259.781a21.344,21.344,0,0,0-3.555,2.931s1.8-.138,2.09-.138.9-1.25,1.2-1.466c.39-.22.791-.42,1.2-.6a2.883,2.883,0,0,0,.565,3.6c-.48-.565.06-1.544.06-1.544l.979.6c-1.231-2.114.679-3.525,1.308-3.916l.2-.078a.988.988,0,0,0,.781.427.972.972,0,0,0,.75-.4l.379.144a2.756,2.756,0,0,1,1.159,3.819l.979-.6s.546.98.06,1.544a2.9,2.9,0,0,0,.6-3.545,11.281,11.281,0,0,1,1.063.541c.282.216.9,1.466,1.2,1.466s2.09.138,2.09.138a21.344,21.344,0,0,0-3.555-2.931c-.265-.133-1.075-.4-2.1-.726a3.507,3.507,0,0,0-.973-.6,19.727,19.727,0,0,0,2.24,0h0a3.521,3.521,0,0,1,1.015.817c.282.2.522.6.968.762s.96.379,1.843.721c.986.4,3-.318,5.118,0,.66.1,3.093-1.483,2.51-1.447a4.566,4.566,0,0,1-1.28-.288h.078c.661-.18,2.349-1.8,1.8-1.682a8.359,8.359,0,0,1-2.354-.18c.516-.42,1.332-1.543.948-1.345a7.619,7.619,0,0,1-2.57-.282,3.615,3.615,0,0,0-.4-.054l.18-.083c1.123-.541,2.276-1.2,3.405-1.874,1.2.144,2.21.956,2.817,1.034a9.293,9.293,0,0,1,1.526.378,7.838,7.838,0,0,0,2.81-.643c1.063-.342.883-.919,1.8-1.261.643-.24,1.706-1.2,1.2-.942-.383.228-1.65-.085-2.558-.265.168-.066.073-.216,1.153-1.2.5-.456.9-2.084.439-1.723a2.479,2.479,0,0,1-1.2.354c.312-.522.6-2.126.349-1.759a4.79,4.79,0,0,1-1.538,1.009,13.227,13.227,0,0,0,1.8-1.844,5.181,5.181,0,0,1,1.274-.408c.563,0,2.227.221,2.648-.2a18.207,18.207,0,0,1,1.267-1.327,7.584,7.584,0,0,0,1.2-2.084,6.923,6.923,0,0,1,1.868-2.1,6.279,6.279,0,0,0-2.193,0,4.764,4.764,0,0,1,1-2.09s-1.886.481-2.366.565a2.627,2.627,0,0,0-1.844.763c.24-.8.444-1.538.6-2.15a2.065,2.065,0,0,1,.126-.445,1.805,1.805,0,0,1,.978-.738c1.388-.463,2.648-.565,3.147-1.063s.764-.823.968-1.045a4.082,4.082,0,0,0,.84-1.466A17.948,17.948,0,0,0,1005.317,86.654Zm-5.015-1.345a19.026,19.026,0,0,1-.433,2.841,3,3,0,0,0-.312-1.135c-.2-.422-.481-.422-.6-.842s-.6-.558-.9-.9a6.012,6.012,0,0,0-.847-.764,7.675,7.675,0,0,0-.138,2.648,1.8,1.8,0,0,1,.1.415l-.384-.138c-.361.822.061,1.664.2,2.4a5.932,5.932,0,0,0,.48.985c.145.276.085.541.223.762s.439.211.75.5a4.235,4.235,0,0,0,.168,1.094c-.264.895-.558,1.8-.876,2.72a2.128,2.128,0,0,0-.337-.96,3.423,3.423,0,0,1-.6-1.129c-.282-.757-.847-.757-.925-1.519a13.8,13.8,0,0,0-.264,1.664,4.267,4.267,0,0,0,.1,1.471,2.41,2.41,0,0,1-.121.931,2.786,2.786,0,0,0-.276-1.2,1.344,1.344,0,0,1-.144-.842,7.588,7.588,0,0,1-1.07,1.418l-.264-.439c3.664-6.4,2.81-17.35,2.672-18.852.6-.126.486-.427.486-.427l-.114-.72a.58.58,0,0,0,.187.1.5.5,0,0,0,.126,0,.421.421,0,0,0,.24-.078.431.431,0,0,0,.186-.33h0a2.165,2.165,0,0,0,.751.6c.5.138.919.361.978.558h0a32.279,32.279,0,0,1,.709,3.989h0c-.558-.6-.7-1.8-1.946-2.451a3.627,3.627,0,0,1,0,.847A4.97,4.97,0,0,0,998,79.615a3.569,3.569,0,0,1-.956-.937,5.854,5.854,0,0,0,.282,2.648c.481.925.5,1.381,1.039,1.58a2.679,2.679,0,0,1,.847.5,1.791,1.791,0,0,0,.84.342.263.263,0,0,1,.187.109,3.331,3.331,0,0,0,.107.42c-.024.366-.024.714-.036,1.027Zm-48.646-7.544,3.724,2.643a12.636,12.636,0,0,0,.534,4.108l-3.087,5.152c-.51-1.135-1.807-4.744-1.158-11.9Zm-5.717-3a1.008,1.008,0,0,1,.636-.481,1.142,1.142,0,0,1-.24.775.343.343,0,0,1-.2.144.2.2,0,0,1-.186,0,.233.233,0,0,1-.09-.2.369.369,0,0,1,.09-.264Zm12.179-8.588,2.955,3.256a13.162,13.162,0,0,0,.6,5.459l-2.684,4.492c-.648-1.327-1.976-5.176-.859-13.23Zm11.512-2.1a11.847,11.847,0,0,1,3.953,0l.42.709a10.966,10.966,0,0,0-4.805,0Zm.337-.565,1.645-2.744,1.635,2.732a12.259,12.259,0,0,0-3.268-.012Zm-1.117,1.886a10.473,10.473,0,0,1,5.532,0l.456.757a9.823,9.823,0,0,0-6.444.029Zm-.895,1.5a9.268,9.268,0,0,1,7.333-.054l11.333,18.978h-4.162a4.748,4.748,0,0,1-.546-.384,1.521,1.521,0,0,0-.2-.143,1.2,1.2,0,0,0-.925-.18,1.813,1.813,0,0,0-.492.18,2.812,2.812,0,0,0-.432.282h-.054a1.564,1.564,0,0,1-.2-.09,4.794,4.794,0,0,1-1.021-.661,1.981,1.981,0,0,0-.331-.221,1.319,1.319,0,0,0-.6-.156,1.587,1.587,0,0,0-.444.072,2.557,2.557,0,0,0-.6.265,3.576,3.576,0,0,0-.349.252h-.048a3.81,3.81,0,0,0-.667-.342,3.417,3.417,0,0,1-.6-.306,6.257,6.257,0,0,1-.774-.553,2.4,2.4,0,0,0-.277-.2,1.637,1.637,0,0,0-.667-.2,1.426,1.426,0,0,0-.475,0,2.375,2.375,0,0,0-.6.223,2.965,2.965,0,0,0-.3.192V77.321c.7-.042,1.2-.282,1.2-.6a5.507,5.507,0,0,0-1.165-2.75,1.242,1.242,0,0,0-1.381,0s-.859.5-.42,1.2c0,0,.1.211.468.06a.515.515,0,0,0,.313-.378v.168c0,.245-.337.378-.355.384a6.361,6.361,0,0,0-.347,1.345c0,.294.54.534,1.237.6v6.66l-.06-.042a6.419,6.419,0,0,1-.823-.6,2.04,2.04,0,0,0-.3-.216,1.688,1.688,0,0,0-.667-.216,1.578,1.578,0,0,0-.558,0,2.532,2.532,0,0,0-.636.235,3.527,3.527,0,0,0-.6.39h-.1l-.258-.15a3.545,3.545,0,0,0-.378-.18,3.976,3.976,0,0,1-.5-.221,7.627,7.627,0,0,1-1.3-.871l-.119-.1a1.974,1.974,0,0,0-1.07-.42h-.306a2.44,2.44,0,0,0-.738.18,3.818,3.818,0,0,0-.763.427,6.432,6.432,0,0,0-.756.653,10.557,10.557,0,0,0-.859.949,11.217,11.217,0,0,0-.733,1.015.1.1,0,0,1-.036.048c-.163.2-.337.4-.517.6a2.648,2.648,0,0,1-.354.318h-2.306ZM984.3,79.35l-2.684-4.492a13.992,13.992,0,0,0,.6-5.453l2.949-3.254C986.243,74.2,984.9,78.047,984.3,79.35Zm12.39-5.093a1.075,1.075,0,0,1,.648.493.369.369,0,0,1,.066.235.211.211,0,0,1-.09.167.192.192,0,0,1-.186,0,.356.356,0,0,1-.2-.143,1.143,1.143,0,0,1-.264-.752Zm-6.234,15.375-3.087-5.152a12.387,12.387,0,0,0,.535-4.072l3.712-2.613c.618,7.11-.673,10.72-1.184,11.837Zm-39.788,6.21L953.555,91h35.091l-.18-.1a5.708,5.708,0,0,1-.6-.42c-.349-.27-.673-.559-1-.859-.461-.432-.907-.883-1.344-1.345-.289-.3-.6-.6-.854-.913a5.339,5.339,0,0,0-.378-.4,5.834,5.834,0,0,0-.769-.6,2.9,2.9,0,0,0-.379-.2h3.7l5.814,9.711Zm5.807-9.711h2.145a14.331,14.331,0,0,1-1.3,1.014l-.126.078a6.754,6.754,0,0,0-.7.481c-.367.276-.716.6-1.058.883a12.362,12.362,0,0,0-1,.936Zm15.1-1.316.247.109a2.883,2.883,0,0,1,.276.126,5.358,5.358,0,0,1,.709.468,7.492,7.492,0,0,1,1.021.968c.475.534.968,1.056,1.466,1.573.2.209.408.42.6.6.529.529,1.068,1.039,1.628,1.531l.107.09h-2.744a.09.09,0,0,1-.078,0l-.187-.143c-.384-.3-.75-.6-1.111-.937s-.817-.757-1.2-1.148q-1.3-1.278-2.522-2.63l-.427-.468a9.764,9.764,0,0,0-1.014-.932.114.114,0,0,1-.042,0h0a3.253,3.253,0,0,1,.565-.311,1.662,1.662,0,0,1,.349-.09.965.965,0,0,1,.6.107,1.3,1.3,0,0,1,.258.175,7.277,7.277,0,0,0,.654.48,5.29,5.29,0,0,0,.818.432Zm11.068,1.8.127.053a1.925,1.925,0,0,1,.306.151,4.316,4.316,0,0,1,.714.546c.143.133.276.27.408.414.259.289.516.6.786.854s.487.5.733.75.6.6.913.871c0,0,.036,0,.041.048h-1.536a.125.125,0,0,1-.1,0c-.289-.24-.565-.48-.842-.732s-.528-.5-.786-.757c-.6-.559-1.117-1.141-1.658-1.73-.114-.126-.221-.252-.342-.372a5.992,5.992,0,0,0-.864-.745l-.037-.029h0a1.226,1.226,0,0,1,.422-.18.552.552,0,0,1,.426.072.807.807,0,0,1,.151.109,5.246,5.246,0,0,0,1.111.7Zm-2.072.2a5.708,5.708,0,0,1,.6.6c.4.449.8.883,1.2,1.308s.752.764,1.141,1.129l.469.432.041.037H981.84a.084.084,0,0,1-.072,0l-.427-.349c-.4-.343-.793-.7-1.17-1.07l-.661-.643c-.6-.6-1.123-1.159-1.664-1.754l-.36-.4a7.6,7.6,0,0,0-.6-.6h-.029a1.775,1.775,0,0,1,.456-.264,1.053,1.053,0,0,1,.33-.078.638.638,0,0,1,.349.078.939.939,0,0,1,.2.138,5.6,5.6,0,0,0,1.08.709,3.129,3.129,0,0,0,.325.15,1.521,1.521,0,0,1,.306.15,4.56,4.56,0,0,1,.643.445Zm-3.332,0c.306.347.6.684.936,1.021s.6.6.878.9c.5.5,1.009.992,1.543,1.459l.121.109h-1.946a.092.092,0,0,1-.083,0c-.144-.114-.289-.223-.427-.342-.463-.384-.9-.787-1.334-1.2l-.691-.679c-.6-.6-1.2-1.243-1.8-1.886-.138-.15-.27-.3-.408-.444a7.173,7.173,0,0,0-1.129-.973,4.87,4.87,0,0,0-.6-.367h-.036a1.6,1.6,0,0,1,.6-.245.878.878,0,0,1,.311,0,.816.816,0,0,1,.355.107,1.271,1.271,0,0,1,.233.168,6.545,6.545,0,0,0,1.369.871l.205.09a2.4,2.4,0,0,1,.354.168,5.07,5.07,0,0,1,.726.516,7.045,7.045,0,0,1,.793.721Zm-8.6-1.611a6.392,6.392,0,0,1,.54.6l.6.661c.359.384.72.769,1.092,1.147.655.673,1.334,1.334,2.031,1.97.269.247.539.486.816.714l.048.042H954.551l.318-.33c.288-.282.6-.558.876-.828a13.765,13.765,0,0,1,1.111-.944,7.751,7.751,0,0,1,.728-.5,1.863,1.863,0,0,0,.209-.138,14.861,14.861,0,0,0,1.73-1.4,9.813,9.813,0,0,0,.871-.931l.048-.066a10.334,10.334,0,0,1,.74-1.033c.216-.264.444-.517.684-.757a5.464,5.464,0,0,1,.811-.66,2.97,2.97,0,0,1,.6-.33,2,2,0,0,1,.456-.114,1.189,1.189,0,0,1,.769.15,1.383,1.383,0,0,1,.294.2,6.548,6.548,0,0,0,.673.505,7.056,7.056,0,0,0,.84.5,5.09,5.09,0,0,0,.475.211l.306.143a6.4,6.4,0,0,1,.769.505A8.678,8.678,0,0,1,968.641,85.212ZM964.3,97.1a9.169,9.169,0,0,0,3.1,1.5c-.744.221-5.579,1.5-9.711-1.5Zm6.605,3.921s.457-2.4.728-3.921h0c.264,1.519.727,3.921.727,3.921a2.743,2.743,0,0,1-.727,2.24,2.675,2.675,0,0,1-.74-2.234Zm8.049-3.921h6.605c-4.132,3-8.961,1.717-9.7,1.5a9.089,9.089,0,0,0,3.086-1.49ZM995.775,73.41a.388.388,0,0,1-.066-.264.207.207,0,0,1,.072-.119l.06.041a2.073,2.073,0,0,1,.6.6.579.579,0,0,1,0,.253,1.17,1.17,0,0,1-.672-.505Zm-5.2-11.572a.288.288,0,0,1-.4-.03,1.239,1.239,0,0,1-.4-.66.234.234,0,0,0,0-.042,1.042,1.042,0,0,1,.708.337.286.286,0,0,1,.087.4l0,0Zm-.546-1.9.745-.258h0l-.185.764-.6.084h0Zm-1.387.138a.235.235,0,0,1,.162-.066.384.384,0,0,1,.252.109,1.086,1.086,0,0,1,.384.643.151.151,0,0,0-.126.036,1.354,1.354,0,0,1-.6-.318.294.294,0,0,1-.078-.4Zm-16.108-8.961h.078a.258.258,0,1,1,.135.5.234.234,0,0,1-.135,0,1.2,1.2,0,0,1-.769-.252A.986.986,0,0,1,972.538,51.117Zm-.913-1.477h0l.384.691-.378.463h0l-.384-.463Zm-.985,1.975h0a.368.368,0,0,1-.252-.1.229.229,0,0,1-.066-.15.218.218,0,0,1,.066-.151.356.356,0,0,1,.264-.1,1.071,1.071,0,0,1,.763.247,1.119,1.119,0,0,1-.775.252Zm.823,4.582a7.014,7.014,0,0,0,.776-1.868,10.1,10.1,0,0,1-.258,4.475l-.355-.6-1.14,1.958a6.357,6.357,0,0,1,.978-3.965ZM954.208,60.12a.353.353,0,0,1,.253-.1.254.254,0,0,1,.15.066.228.228,0,0,1,.054.162.357.357,0,0,1-.126.24,1.2,1.2,0,0,1-.7.337H953.8A1.037,1.037,0,0,1,954.208,60.12Zm-1.742-.427h0l.745.258.031.6h0l-.6-.084Zm.343,2.216a.2.2,0,0,1-.151-.066.185.185,0,0,1-.048-.155.353.353,0,0,1,.126-.247,1.057,1.057,0,0,1,.679-.337h.054a1.138,1.138,0,0,1-.4.685.323.323,0,0,1-.241.119Zm-5.346,11.514a1.2,1.2,0,0,1-.648.486.584.584,0,0,1,0-.235,2.042,2.042,0,0,1,.6-.6l.048-.036a.23.23,0,0,1,.073.138.384.384,0,0,1-.054.247Zm-4.528,10.852c.042-.139.078-.277.109-.422a.245.245,0,0,1,.186-.107,1.858,1.858,0,0,0,.842-.342,2.615,2.615,0,0,1,.84-.505c.546-.2.546-.679,1.045-1.58a5.574,5.574,0,0,0,.282-2.648,3.565,3.565,0,0,1-.954.937,5.4,5.4,0,0,0-.114-1.092,3.627,3.627,0,0,1,0-.847c-1.25.643-1.388,1.8-1.952,2.45h0a33.592,33.592,0,0,1,.7-3.987h0c.061-.2.487-.42.985-.558a2.03,2.03,0,0,0,.733-.6h0a.427.427,0,0,0,.427.41h.126a.6.6,0,0,0,.186-.1l-.119.721s-.1.3.492.426c-.138,1.5-1,12.468,2.672,18.864l-.252.427a7.871,7.871,0,0,1-1.075-1.417,1.329,1.329,0,0,1-.138.84,2.772,2.772,0,0,0-.276,1.2,2.435,2.435,0,0,1-.127-.931,4.1,4.1,0,0,0,.121-1.465,14.652,14.652,0,0,0-.258-1.664c-.083.762-.643.762-.925,1.519a3.423,3.423,0,0,1-.6,1.129,2.112,2.112,0,0,0-.335.96c-.318-.907-.6-1.8-.883-2.72a3.82,3.82,0,0,0,.168-1.094c.318-.288.6-.312.75-.5s.083-.486.221-.762a5.052,5.052,0,0,0,.481-.985c.144-.762.565-1.6.2-2.4l-.384.138a1.364,1.364,0,0,1,.1-.415,7.517,7.517,0,0,0-.144-2.648,6.193,6.193,0,0,0-.84.764c-.282.342-.762.48-.907.9s-.42.42-.6.842a2.9,2.9,0,0,0-.318,1.135,19.768,19.768,0,0,1-.434-2.841c-.024-.313-.024-.661-.017-1.033Zm31.5,28.9a3.984,3.984,0,0,0-1.8.451v-.054A33.125,33.125,0,0,1,975.079,110a3.076,3.076,0,0,1-.626,3.177Zm-3.742.451a3.984,3.984,0,0,0-1.8-.451,3.076,3.076,0,0,1-.6-3.177,33.472,33.472,0,0,1,2.444,3.574Zm21.483-8.8a.785.785,0,0,0,.09-.2,4.393,4.393,0,0,0,.282-1.322,8.452,8.452,0,0,0-.427-1.664c-.2-.505-.679-1.664-1.2-1.886,0,0-.4,1.322-.541,1.8a4.082,4.082,0,0,1-.5,1.328c-.06.09-.174.288-.306.528a3.636,3.636,0,0,1,0-.931c.085-.919-1.381-2.366-1.381-2.366a4.97,4.97,0,0,1-.7,2.366,5.052,5.052,0,0,0-.762,2.006,2.408,2.408,0,0,1-.565,1.328c-.415.565.054,2.943.107,3.218a30.829,30.829,0,0,1-2.81,1.592c-.27.131-.6.27-.913.414.061-.06.126-.107.187-.174a4.682,4.682,0,0,0,1.381-2.143c.439-.078-.6-.187-1.172-.133.343-.529.823-1.243,1.153-1.856.265-.505-2.246.156-2.246.156-.27.114-.486.192-.667.258a10.221,10.221,0,0,0,.4-1.754c0-.2-1.063.138-1.9.5a12.575,12.575,0,0,0-1.766,1.267c-.745.48-.84,1.681-1.2,2.245a4.379,4.379,0,0,0-.439.937,1.1,1.1,0,0,0-.492-.937h-.066l-.145-.036c-.156-.036-.42-.078-.828-.126a1.8,1.8,0,0,0-1.886.786,21.812,21.812,0,0,0-.919,2.943.769.769,0,0,0-.648,0,21.82,21.82,0,0,0-.919-2.943,1.8,1.8,0,0,0-1.886-.786c-.408.048-.673.09-.828.126l-.145.036h-.066c-.252.133-.505.475-.517,1.3a3.45,3.45,0,0,0-.516-1.3c-.342-.565-.444-1.766-1.2-2.245a11.383,11.383,0,0,0-1.766-1.267c-.847-.361-1.886-.7-1.91-.5a10.919,10.919,0,0,0,.408,1.754c-.18-.066-.4-.144-.667-.258,0,0-2.51-.661-2.252-.156.337.6.811,1.327,1.159,1.856-.6-.054-1.609.054-1.2.133a4.806,4.806,0,0,0,1.388,2.143,2.289,2.289,0,0,0,.185.174c-.335-.143-.641-.282-.912-.414-.907-.457-1.88-1.015-2.812-1.592.054-.276.522-2.654.1-3.218a2.445,2.445,0,0,1-.558-1.328,5.077,5.077,0,0,0-.762-2.006,4.912,4.912,0,0,1-.7-2.366s-1.465,1.448-1.387,2.366a3.89,3.89,0,0,1,0,.931c-.132-.24-.246-.437-.313-.528a4.11,4.11,0,0,1-.5-1.328l-.546-1.8c-.5.223-.98,1.381-1.2,1.886a8.269,8.269,0,0,0-.42,1.664,4.356,4.356,0,0,0,.282,1.322.529.529,0,0,0,.084.2,11.076,11.076,0,0,1-2.589-2.8,1.435,1.435,0,0,1,.294-.732,5.561,5.561,0,0,0,1.046-1.6,3.836,3.836,0,0,0,0-1.267,11.944,11.944,0,0,1,.2-1.243.76.76,0,0,1,0-.078h1.2c2.078,1.538,9.568,6.258,18.372,2.4a1.244,1.244,0,0,1-.138.313s-1.893,2.565,2.4,3.436h0c4.276-.871,2.4-3.436,2.4-3.436a1.4,1.4,0,0,1-.144-.318c8.811,3.849,16.3-.871,18.384-2.4h1.2a.76.76,0,0,0,0,.078,11.867,11.867,0,0,1,.2,1.242,3.768,3.768,0,0,0,0,1.267,5.292,5.292,0,0,0,1.045,1.6,1.485,1.485,0,0,1,.294.733,11.1,11.1,0,0,1-2.883,2.8Z" transform="translate(-609.543 -23.954)" fill="#fff"/>
      <path id="Trazado_201" data-name="Trazado 201" d="M973.838,92.827a.409.409,0,0,0-.42.4h0a.413.413,0,0,0,.4.425h.019a.426.426,0,0,0,.42-.425A.415.415,0,0,0,973.838,92.827Z" transform="translate(-598.003 -9.547)" fill="#fff"/>
      <path id="Trazado_202" data-name="Trazado 202" d="M975.623,95.016a.426.426,0,0,0-.42.427.408.408,0,0,0,.4.42h.024a.42.42,0,0,0,.42-.42h0A.439.439,0,0,0,975.623,95.016Z" transform="translate(-597.422 -8.835)" fill="#fff"/>
      <path id="Trazado_203" data-name="Trazado 203" d="M979.773,88.088a.42.42,0,0,0-.42.42h0a.433.433,0,0,0,.42.42.42.42,0,0,0,.42-.42h0a.408.408,0,0,0-.4-.422Z" transform="translate(-596.071 -11.09)" fill="#fff"/>
      <path id="Trazado_204" data-name="Trazado 204" d="M981.9,89.773a.467.467,0,0,0,.463.461.454.454,0,0,0,.461-.449v-.012a.462.462,0,0,0-.461-.457A.48.48,0,0,0,981.9,89.773Z" transform="translate(-595.244 -10.69)" fill="#fff"/>
      <path id="Trazado_205" data-name="Trazado 205" d="M982.824,82.462a.45.45,0,0,0,.463-.439V82a.467.467,0,0,0-.463-.463.48.48,0,0,0-.463.463A.471.471,0,0,0,982.824,82.462Z" transform="translate(-595.092 -13.223)" fill="#fff"/>
      <path id="Trazado_206" data-name="Trazado 206" d="M983.907,75.244a.456.456,0,0,0-.463.449v.013a.463.463,0,0,0,.925,0v0a.451.451,0,0,0-.439-.463Z" transform="translate(-594.739 -15.271)" fill="#fff"/>
      <path id="Trazado_207" data-name="Trazado 207" d="M985.824,69.788a.444.444,0,0,0,.456-.432V69.35a.458.458,0,0,0-.451-.463h-.005a.468.468,0,0,0-.463.463A.462.462,0,0,0,985.824,69.788Z" transform="translate(-594.115 -17.341)" fill="#fff"/>
      <path id="Trazado_208" data-name="Trazado 208" d="M983.355,70.425a.45.45,0,0,0,.463-.439v-.017a.465.465,0,1,0-.93.017A.456.456,0,0,0,983.355,70.425Z" transform="translate(-594.921 -17.137)" fill="#fff"/>
      <path id="Trazado_209" data-name="Trazado 209" d="M981.394,64.655a.45.45,0,0,0-.463-.439h0a.451.451,0,0,0,0,.9.458.458,0,0,0,.463-.451Z" transform="translate(-595.704 -18.861)" fill="#fff"/>
      <path id="Trazado_210" data-name="Trazado 210" d="M982.779,63.656a.451.451,0,0,0,.463-.439v-.024a.463.463,0,1,0-.925-.005v.005a.458.458,0,0,0,.451.463Z" transform="translate(-595.107 -19.346)" fill="#fff"/>
      <path id="Trazado_211" data-name="Trazado 211" d="M986.149,75.765a.451.451,0,0,0,.456.444h.007a.446.446,0,0,0,.439-.444.44.44,0,0,0-.42-.457h0a.444.444,0,0,0-.478.407C986.149,75.73,986.149,75.747,986.149,75.765Z" transform="translate(-593.859 -15.251)" fill="#fff"/>
      <path id="Trazado_212" data-name="Trazado 212" d="M953.087,92.827a.415.415,0,0,0-.42.4.426.426,0,0,0,.42.425.413.413,0,0,0,.42-.408v-.017a.41.41,0,0,0-.42-.4Z" transform="translate(-604.759 -9.547)" fill="#fff"/>
      <path id="Trazado_213" data-name="Trazado 213" d="M951.738,95.443a.426.426,0,0,0-.42-.427.445.445,0,0,0-.427.427.427.427,0,0,0,.427.42.409.409,0,0,0,.42-.4Z" transform="translate(-605.337 -8.835)" fill="#fff"/>
      <path id="Trazado_214" data-name="Trazado 214" d="M947.165,88.088a.409.409,0,0,0-.42.4v.025a.42.42,0,0,0,.42.42h0a.433.433,0,0,0,.422-.42.421.421,0,0,0-.422-.422Z" transform="translate(-606.687 -11.09)" fill="#fff"/>
      <path id="Trazado_215" data-name="Trazado 215" d="M944.6,90.235a.468.468,0,0,0,.463-.461.481.481,0,0,0-.463-.457.463.463,0,0,0-.462.457.45.45,0,0,0,.439.461A.071.071,0,0,0,944.6,90.235Z" transform="translate(-607.535 -10.69)" fill="#fff"/>
      <path id="Trazado_216" data-name="Trazado 216" d="M944.136,81.537a.469.469,0,0,0-.463.463.451.451,0,0,0,.439.463h.024a.464.464,0,0,0,.457-.463A.481.481,0,0,0,944.136,81.537Z" transform="translate(-607.687 -13.223)" fill="#fff"/>
      <path id="Trazado_217" data-name="Trazado 217" d="M942.428,82.634a.457.457,0,0,0-.451-.463h-.012a.463.463,0,1,0,0,.925h0a.451.451,0,0,0,.463-.439Z" transform="translate(-608.393 -13.016)" fill="#fff"/>
      <path id="Trazado_218" data-name="Trazado 218" d="M943.071,76.181a.469.469,0,0,0,.463-.461.46.46,0,1,0-.463.461Z" transform="translate(-608.032 -15.284)" fill="#fff"/>
      <path id="Trazado_219" data-name="Trazado 219" d="M941.137,69.788a.463.463,0,0,0,.463-.439.469.469,0,0,0-.463-.463.458.458,0,0,0-.463.451v.012a.451.451,0,0,0,.463.439Z" transform="translate(-608.663 -17.341)" fill="#fff"/>
      <path id="Trazado_220" data-name="Trazado 220" d="M943.606,69.508a.469.469,0,0,0-.463.463.46.46,0,1,0,.463-.463Z" transform="translate(-607.859 -17.138)" fill="#fff"/>
      <path id="Trazado_221" data-name="Trazado 221" d="M945.563,64.655a.451.451,0,0,0,.438.463h.025a.451.451,0,0,0,0-.9.445.445,0,0,0-.463.425Z" transform="translate(-607.071 -18.861)" fill="#fff"/>
      <path id="Trazado_222" data-name="Trazado 222" d="M944.182,63.668a.451.451,0,0,0,.456-.444v-.019a.462.462,0,0,0-.919-.1.477.477,0,0,0,0,.1.451.451,0,0,0,.437.463Z" transform="translate(-607.672 -19.358)" fill="#fff"/>
      <path id="Trazado_223" data-name="Trazado 223" d="M940.805,75.76a.45.45,0,0,0-.463-.439h0a.438.438,0,0,0-.439.439.445.445,0,0,0,.439.444A.458.458,0,0,0,940.805,75.76Z" transform="translate(-608.914 -15.246)" fill="#fff"/>
      <path id="Trazado_224" data-name="Trazado 224" d="M959.288,70.929c.2-.041.258,0,.335.2l.121-.036-.121-.282.806-.342-.078-.163-1.124.505Z" transform="translate(-602.623 -16.879)" fill="#fff"/>
      <path id="Trazado_225" data-name="Trazado 225" d="M959.113,69.757h-.162l.144.6.679-.06v-.121a.287.287,0,0,1-.18-.2.263.263,0,0,1,.19-.322l.008,0a.264.264,0,0,1,.337.162l.007.019c.041.144,0,.264-.139.3l.037.162a.354.354,0,0,0,.248-.435l-.008-.028a.408.408,0,0,0-.46-.35.47.47,0,0,0-.062.013.39.39,0,0,0-.3.46l0,.021a.364.364,0,0,0,.144.216h-.342Z" transform="translate(-602.713 -17.147)" fill="#fff"/>
      <path id="Trazado_226" data-name="Trazado 226" d="M959.2,69.158a.333.333,0,0,0,.323-.24l.078-.258c.061-.2.1-.264.241-.24s.2.223.179.342-.1.337-.318.319v.162a.393.393,0,0,0,.343-.1.541.541,0,0,0,.138-.361c0-.223-.036-.505-.337-.522a.3.3,0,0,0-.342.24l-.121.361a.181.181,0,0,1-.18.144c-.18,0-.2-.2-.18-.325a.265.265,0,0,1,.245-.282.175.175,0,0,1,.037,0v-.156c-.143,0-.4,0-.444.463a.391.391,0,0,0,.315.453Z" transform="translate(-602.743 -17.552)" fill="#fff"/>
      <path id="Trazado_227" data-name="Trazado 227" d="M960.466,67.577l-.138-.042-.24.721-.4-.138.222-.643-.144-.06-.216.661-.36-.12.24-.7-.162-.06-.282.883,1.207.384Z" transform="translate(-602.703 -17.892)" fill="#fff"/>
      <path id="Trazado_228" data-name="Trazado 228" d="M960.517,67.57l-.463-.288.2-.33a.36.36,0,0,0-.069-.505.333.333,0,0,0-.045-.03.323.323,0,0,0-.258-.041.389.389,0,0,0-.247.186l-.276.475,1.056.667Zm-.942-.6.192-.288a.185.185,0,0,1,.186-.114l.085.041a.2.2,0,0,1,.074.27.18.18,0,0,1-.027.036l-.162.258Z" transform="translate(-602.58 -18.162)" fill="#fff"/>
      <path id="Trazado_229" data-name="Trazado 229" d="M960.278,66.07l.8.763.1-.12-.781-.763.3-.318-.12-.1-.7.745.1.1Z" transform="translate(-602.412 -18.434)" fill="#fff"/>
      <path id="Trazado_230" data-name="Trazado 230" d="M961.5,66.32l-.763-1-.12.1.745,1Z" transform="translate(-602.17 -18.503)" fill="#fff"/>
      <path id="Trazado_231" data-name="Trazado 231" d="M962.4,65.892l-.06-.12-.679.342-.18-.36.6-.324-.06-.138-.625.318-.18-.342.661-.336-.06-.144-.823.42.583,1.123Z" transform="translate(-602.048 -18.675)" fill="#fff"/>
      <path id="Trazado_232" data-name="Trazado 232" d="M962.4,65.917l-.163-.745a1.233,1.233,0,0,1-.078-.3l.6.961.155-.036.121-1.106a1.174,1.174,0,0,1,.06.3l.163.721h.162l-.264-1.243-.241.06-.119,1.123-.6-.961-.241.037.282,1.2Z" transform="translate(-601.736 -18.779)" fill="#fff"/>
      <path id="Trazado_233" data-name="Trazado 233" d="M963.726,65.713c.282,0,.451-.133.451-.337a.307.307,0,0,0-.216-.318.271.271,0,0,0,.168-.258.324.324,0,0,0-.331-.347h-.546l-.06,1.255Zm-.288-1.1h.276c.18,0,.246.048.246.174s-.1.175-.265.156h-.288Zm.276.546c.121,0,.258.042.258.2s-.1.2-.258.2l-.318-.029v-.408Z" transform="translate(-601.332 -18.784)" fill="#fff"/>
      <path id="Trazado_234" data-name="Trazado 234" d="M963.233,64.443h0Z" transform="translate(-601.319 -18.788)" fill="#fff"/>
      <path id="Trazado_235" data-name="Trazado 235" d="M964.335,65.276l.4.121c.2.053.18.174.162.269a.663.663,0,0,0-.06.308l.2.053h0c-.042-.041-.036-.066,0-.143v-.217c.06-.162,0-.221-.054-.257.078-.042.2-.066.246-.247a.4.4,0,0,0-.306-.432l-.565-.192-.33,1.23.155.042Zm.2-.534.361.131c.078,0,.2.049.144.229s-.156.15-.277.131l-.347-.1Z" transform="translate(-601.058 -18.756)" fill="#fff"/>
      <path id="Trazado_236" data-name="Trazado 236" d="M965.691,66.453l.06-.12-.643-.378.2-.36.606.336.078-.12-.6-.36.2-.318.643.378.078-.138-.8-.462-.625,1.081Z" transform="translate(-600.781 -18.636)" fill="#fff"/>
      <path id="Trazado_237" data-name="Trazado 237" d="M966.156,66.994a.6.6,0,0,0,.835,0,.535.535,0,0,0,.184-.733.716.716,0,0,0-.052-.072l-.313-.4-.954.8Zm.806-.7c.143.163.119.337-.1.534s-.427.18-.565,0l-.192-.216.667-.563Z" transform="translate(-600.465 -18.348)" fill="#fff"/>
      <path id="Trazado_238" data-name="Trazado 238" d="M966.826,68.05l.138-.06-.342-.685.384-.18.3.625.138-.084-.318-.6.36-.18.318.661.144-.06-.426-.823-1.123.565Z" transform="translate(-600.288 -18.065)" fill="#fff"/>
      <path id="Trazado_239" data-name="Trazado 239" d="M967.73,68.391l-.859.121v.156l1.2-.18v-.121c-.2,0-.216-.078-.276-.282h-.121Z" transform="translate(-600.135 -17.602)" fill="#fff"/>
      <path id="Trazado_240" data-name="Trazado 240" d="M967.828,68.883a.239.239,0,0,0-.247.174.343.343,0,0,0-.3-.247.378.378,0,0,0-.294.121.5.5,0,0,0-.1.3.362.362,0,0,0,.3.416.349.349,0,0,0,.065,0,.292.292,0,0,0,.318-.174.24.24,0,0,0,.246.162.319.319,0,0,0,.33-.366.336.336,0,0,0-.278-.386Zm-.6.6c-.18,0-.2-.144-.2-.247a.2.2,0,0,1,.188-.219.25.25,0,0,1,.045,0,.2.2,0,0,1,.191.217l0,.028a.2.2,0,0,1-.186.211h-.007Zm.6,0a.231.231,0,0,1-.187-.229.182.182,0,0,1,.187-.174h0a.156.156,0,0,1,.167.143.159.159,0,0,1-.005.056c0,.155-.1.2-.162.2Z" transform="translate(-600.13 -17.366)" fill="#fff"/>
      <path id="Trazado_241" data-name="Trazado 241" d="M967.714,69.7v.162a.23.23,0,0,1,.217.3c-.061.221-.18.221-.258.18a.494.494,0,0,1-.241-.277l-.041-.186a.564.564,0,0,0-.42-.4l-.2.822.138.037.163-.661c.06,0,.138.078.18.258l.036.144c.06.221.119.378.323.42a.372.372,0,0,0,.457-.261l.005-.021a.413.413,0,0,0-.289-.509A.457.457,0,0,0,967.714,69.7Z" transform="translate(-600.167 -17.147)" fill="#fff"/>
      <path id="Trazado_242" data-name="Trazado 242" d="M967.52,70.553l-.121.258-.781-.379-.078.156,1.123.522.036-.119c-.155-.121-.138-.2-.06-.4Z" transform="translate(-600.242 -16.838)" fill="#fff"/>
      <path id="Trazado_243" data-name="Trazado 243" d="M962.209,74.793l.138.03.919-3.807h-.138l-.907,3.753Z" transform="translate(-601.652 -16.647)" fill="#fff"/>
      <path id="Trazado_244" data-name="Trazado 244" d="M962.109,73.192l.132.041.769-2.252-.132-.041-.757,2.215Z" transform="translate(-601.685 -16.672)" fill="#fff"/>
      <path id="Trazado_245" data-name="Trazado 245" d="M961.139,74.605l.121.054,1.8-3.747a.619.619,0,0,1-.126-.054l-1.8,3.712Z" transform="translate(-602.001 -16.699)" fill="#fff"/>
      <path id="Trazado_246" data-name="Trazado 246" d="M960.937,74l1.934-3.183-.126-.042-1.927,3.184Z" transform="translate(-602.105 -16.726)" fill="#fff"/>
      <path id="Trazado_247" data-name="Trazado 247" d="M960.007,74.106v.03l.107.083,2.75-3.507-.107-.09Z" transform="translate(-602.369 -16.776)" fill="#fff"/>
      <path id="Trazado_248" data-name="Trazado 248" d="M960.179,73.275l2.4-2.7h0c-.029-.03-.072-.054-.1-.09l-2.431,2.708Z" transform="translate(-602.356 -16.821)" fill="#fff"/>
      <path id="Trazado_249" data-name="Trazado 249" d="M962.725,70.434s-.054-.072-.083-.1l-3.6,3.172.09.1,3.6-3.159Z" transform="translate(-602.685 -16.87)" fill="#fff"/>
      <path id="Trazado_250" data-name="Trazado 250" d="M962.166,70.254h0c0-.036-.061-.066-.085-.107l-1.9,1.345h-.031l.085.114Z" transform="translate(-602.324 -16.93)" fill="#fff"/>
      <path id="Trazado_251" data-name="Trazado 251" d="M961.885,70.077c0-.036-.042-.078-.066-.121l-1.327.745.065.121Z" transform="translate(-602.211 -16.993)" fill="#fff"/>
      <path id="Trazado_252" data-name="Trazado 252" d="M960.342,70.379l.054.126,1.405-.6-.06-.121Z" transform="translate(-602.26 -17.049)" fill="#fff"/>
      <path id="Trazado_253" data-name="Trazado 253" d="M960.224,70.031l.042.132,1.423-.462.036-.012-.048-.126Z" transform="translate(-602.298 -17.121)" fill="#fff"/>
      <path id="Trazado_254" data-name="Trazado 254" d="M961.669,69.482l-.036-.133-1.5.33.03.133Z" transform="translate(-602.326 -17.19)" fill="#fff"/>
      <path id="Trazado_255" data-name="Trazado 255" d="M960.079,69.294v.138l1.544-.162v-.138Z" transform="translate(-602.346 -17.261)" fill="#fff"/>
      <path id="Trazado_256" data-name="Trazado 256" d="M960.061,69.053h1.556a.189.189,0,0,1,0-.066v-.073h-1.556Z" transform="translate(-602.352 -17.332)" fill="#fff"/>
      <path id="Trazado_257" data-name="Trazado 257" d="M960.084,68.736l1.507.127h.031a.841.841,0,0,1,0-.139l-1.508-.131h0Z" transform="translate(-602.344 -17.436)" fill="#fff"/>
      <path id="Trazado_258" data-name="Trazado 258" d="M960.115,68.368l1.526.331v-.133l-1.526-.337Z" transform="translate(-602.334 -17.555)" fill="#fff"/>
      <path id="Trazado_259" data-name="Trazado 259" d="M960.233,68.06l1.442.475h0l.036-.131-1.459-.481Z" transform="translate(-602.296 -17.655)" fill="#fff"/>
      <path id="Trazado_260" data-name="Trazado 260" d="M960.36,67.605l-.054.126,1.429.6a1.184,1.184,0,0,1,.06-.126l-1.405-.6Z" transform="translate(-602.272 -17.758)" fill="#fff"/>
      <path id="Trazado_261" data-name="Trazado 261" d="M960.451,67.432l1.363.738h0a.8.8,0,0,1,.066-.119l-1.375-.745Z" transform="translate(-602.225 -17.855)" fill="#fff"/>
      <path id="Trazado_262" data-name="Trazado 262" d="M960.65,67.143l1.249.888a.882.882,0,0,1,.09-.107l-1.249-.889Z" transform="translate(-602.16 -17.944)" fill="#fff"/>
      <path id="Trazado_263" data-name="Trazado 263" d="M960.962,66.767l-.09.107,1.141.98h0l.09-.109-1.123-.966Z" transform="translate(-602.088 -18.031)" fill="#fff"/>
      <path id="Trazado_264" data-name="Trazado 264" d="M961.21,66.536l-.1.1,1.04,1.087.107-.084-1.027-1.075Z" transform="translate(-602.011 -18.106)" fill="#fff"/>
      <path id="Trazado_265" data-name="Trazado 265" d="M961.468,66.323l-.1.09.942,1.2.1-.085-.919-1.152Z" transform="translate(-601.927 -18.175)" fill="#fff"/>
      <path id="Trazado_266" data-name="Trazado 266" d="M961.8,66.137l-.121.066.745,1.279h0l.121-.066-.74-1.267Z" transform="translate(-601.824 -18.236)" fill="#fff"/>
      <path id="Trazado_267" data-name="Trazado 267" d="M962.077,66.006l-.127.06.6,1.339.127-.06-.6-1.31Z" transform="translate(-601.736 -18.279)" fill="#fff"/>
      <path id="Trazado_268" data-name="Trazado 268" d="M962.425,65.888l-.126.042.486,1.4.133-.042-.481-1.369Z" transform="translate(-601.623 -18.317)" fill="#fff"/>
      <path id="Trazado_269" data-name="Trazado 269" d="M962.773,65.793h-.138l.306,1.465h.131l-.294-1.465Z" transform="translate(-601.514 -18.348)" fill="#fff"/>
      <path id="Trazado_270" data-name="Trazado 270" d="M963.138,67.247h.138l-.15-1.5h-.138Z" transform="translate(-601.399 -18.361)" fill="#fff"/>
      <path id="Trazado_271" data-name="Trazado 271" d="M963.439,65.734H963.3v1.5h.114V65.758Z" transform="translate(-601.297 -18.367)" fill="#fff"/>
      <path id="Trazado_272" data-name="Trazado 272" d="M963.514,67.234h.138l.143-1.514h-.138Z" transform="translate(-601.228 -18.372)" fill="#fff"/>
      <path id="Trazado_273" data-name="Trazado 273" d="M963.836,67.292h.054l.3-1.5h-.138l-.294,1.483Z" transform="translate(-601.148 -18.347)" fill="#fff"/>
      <path id="Trazado_274" data-name="Trazado 274" d="M964.54,65.93l-.131-.042-.469,1.387h0l.132.042Z" transform="translate(-601.089 -18.317)" fill="#fff"/>
      <path id="Trazado_275" data-name="Trazado 275" d="M964.883,66.055,964.757,66l-.6,1.345h0l.119.066.6-1.34Z" transform="translate(-601.018 -18.28)" fill="#fff"/>
      <path id="Trazado_276" data-name="Trazado 276" d="M965.071,66.132l-.715,1.279-.018.03.12.066.733-1.309Z" transform="translate(-600.959 -18.237)" fill="#fff"/>
      <path id="Trazado_277" data-name="Trazado 277" d="M964.515,67.515h0a.731.731,0,0,1,.107.084l.908-1.2h0l-.109-.084Z" transform="translate(-600.902 -18.178)" fill="#fff"/>
      <path id="Trazado_278" data-name="Trazado 278" d="M964.687,67.636l.1.1,1-1.087.024-.024-.1-.09Z" transform="translate(-600.846 -18.108)" fill="#fff"/>
      <rect id="Rectángulo_2" data-name="Rectángulo 2" width="1.501" height="0.138" transform="translate(364.068 49.753) rotate(-41.86)" fill="#fff"/>
      <path id="Trazado_279" data-name="Trazado 279" d="M965.013,67.906h0l.09.1,1.2-.871h0l-.078-.107Z" transform="translate(-600.74 -17.945)" fill="#fff"/>
      <path id="Trazado_280" data-name="Trazado 280" d="M965.126,68.029h0c0,.036.042.078.066.121l1.255-.714h.031l-.066-.121Z" transform="translate(-600.703 -17.852)" fill="#fff"/>
      <path id="Trazado_281" data-name="Trazado 281" d="M965.217,68.205h0a.406.406,0,0,1,.06.121l1.357-.6h0l-.053-.121Z" transform="translate(-600.673 -17.758)" fill="#fff"/>
      <path id="Trazado_282" data-name="Trazado 282" d="M965.3,68.395a.177.177,0,0,0,.041.133l1.381-.475h.037l-.049-.126Z" transform="translate(-600.646 -17.653)" fill="#fff"/>
      <path id="Trazado_283" data-name="Trazado 283" d="M965.358,68.547a.237.237,0,0,0,.029.138l1.471-.337v-.131Z" transform="translate(-600.627 -17.559)" fill="#fff"/>
      <path id="Trazado_284" data-name="Trazado 284" d="M965.389,68.714v.133l1.447-.126h.036v-.133Z" transform="translate(-600.617 -17.438)" fill="#fff"/>
      <path id="Trazado_285" data-name="Trazado 285" d="M965.423,68.987v.042h1.49v-.138h-1.5A.921.921,0,0,1,965.423,68.987Z" transform="translate(-600.608 -17.339)" fill="#fff"/>
      <path id="Trazado_286" data-name="Trazado 286" d="M965.387,69.331a.915.915,0,0,1-.029.133l1.434.33.037-.138Z" transform="translate(-600.627 -17.196)" fill="#fff"/>
      <path id="Trazado_287" data-name="Trazado 287" d="M966.872,69.414v-.138l-1.483-.162h0v.107l1.447.156Z" transform="translate(-600.617 -17.267)" fill="#fff"/>
      <path id="Trazado_288" data-name="Trazado 288" d="M966.69,70.138l.042-.126-1.376-.463h0l-.036.119,1.369.457Z" transform="translate(-600.639 -17.125)" fill="#fff"/>
      <path id="Trazado_289" data-name="Trazado 289" d="M965.273,69.757c0,.042-.042.078-.06.121l1.315.6h.029l.055-.121-1.339-.6Z" transform="translate(-600.674 -17.057)" fill="#fff"/>
      <path id="Trazado_290" data-name="Trazado 290" d="M965.113,70.062l1.249.721h0l.066-.114-1.279-.74Z" transform="translate(-600.707 -17.001)" fill="#fff"/>
      <path id="Trazado_291" data-name="Trazado 291" d="M964.995,70.238l1.856,1.352.078-.115-1.85-1.351Z" transform="translate(-600.745 -16.938)" fill="#fff"/>
      <path id="Trazado_292" data-name="Trazado 292" d="M964.93,70.323c-.031.037-.055.073-.084.1l3.435,3.135h0l.09-.1-3.422-3.135Z" transform="translate(-600.794 -16.873)" fill="#fff"/>
      <path id="Trazado_293" data-name="Trazado 293" d="M964.687,70.553l2.342,2.7.109-.09-2.349-2.691h0a.41.41,0,0,1-.078.066Z" transform="translate(-600.846 -16.826)" fill="#fff"/>
      <path id="Trazado_294" data-name="Trazado 294" d="M964.528,70.684l2.649,3.5.109-.084-2.648-3.5Z" transform="translate(-600.897 -16.783)" fill="#fff"/>
      <path id="Trazado_295" data-name="Trazado 295" d="M964.311,70.8l1.837,3.142h0l.121-.072L964.413,70.7Z" transform="translate(-600.968 -16.749)" fill="#fff"/>
      <path id="Trazado_296" data-name="Trazado 296" d="M964.143,70.9l1.694,3.688v.03l.126-.061-1.711-3.723Z" transform="translate(-601.023 -16.706)" fill="#fff"/>
      <path id="Trazado_297" data-name="Trazado 297" d="M963.917,70.963l.726,2.2V73.2l.132-.042-.74-2.235Z" transform="translate(-601.096 -16.678)" fill="#fff"/>
      <path id="Trazado_298" data-name="Trazado 298" d="M963.708,71.019l.883,3.766.133-.036-.883-3.761Z" transform="translate(-601.164 -16.656)" fill="#fff"/>
      <path id="Trazado_299" data-name="Trazado 299" d="M953.787,89.878s-.427.493-.192.913a.709.709,0,0,0,1,.069.7.7,0,0,0,.069-.069S953.631,90.8,953.787,89.878Z" transform="translate(-604.479 -10.507)" fill="#fff"/>
      <path id="Trazado_300" data-name="Trazado 300" d="M972.335,90.791a.7.7,0,0,0,.99.078.712.712,0,0,0,.078-.078c.241-.42-.192-.913-.192-.913C973.368,90.8,972.335,90.791,972.335,90.791Z" transform="translate(-598.356 -10.507)" fill="#fff"/>
      <path id="Trazado_301" data-name="Trazado 301" d="M956.835,89.517l-.223-.133-.551.931.221.127a.541.541,0,0,0,.553-.925Z" transform="translate(-603.654 -10.668)" fill="#fff"/>
      <path id="Trazado_302" data-name="Trazado 302" d="M958.194,90.207a.53.53,0,0,0-.7.256l-.005.015a.533.533,0,0,0,.217.724l.016.009a.542.542,0,0,0,.716-.27l.005-.012a.534.534,0,0,0-.239-.717Z" transform="translate(-603.211 -10.416)" fill="#fff"/>
      <path id="Trazado_303" data-name="Trazado 303" d="M962.863,91.414a.558.558,0,1,0,.479.533A.559.559,0,0,0,962.863,91.414Z" transform="translate(-601.615 -10.007)" fill="#fff"/>
      <path id="Trazado_304" data-name="Trazado 304" d="M966.651,91.476l-.306.078.121.475.311-.085a.222.222,0,0,0,.186-.255c0-.013-.007-.027-.011-.04a.229.229,0,0,0-.266-.183Z" transform="translate(-600.306 -9.991)" fill="#fff"/>
      <path id="Trazado_305" data-name="Trazado 305" d="M966.769,91.2a.2.2,0,0,0-.243-.156l-.021.005-.282.078.107.408.289-.072a.2.2,0,0,0,.157-.243Z" transform="translate(-600.346 -10.128)" fill="#fff"/>
      <path id="Trazado_306" data-name="Trazado 306" d="M968.221,90.5a.362.362,0,0,0-.192.042l-.216.09.192.475L968.27,91a.24.24,0,0,0,.151-.3l-.013-.032A.23.23,0,0,0,968.221,90.5Z" transform="translate(-599.828 -10.304)" fill="#fff"/>
      <path id="Trazado_307" data-name="Trazado 307" d="M969.531,90.048l.078.475.379-.211-.355-.325c-.054-.048-.143-.15-.143-.15h0S969.519,89.97,969.531,90.048Z" transform="translate(-599.282 -10.521)" fill="#fff"/>
      <path id="Trazado_308" data-name="Trazado 308" d="M978.735,90.49l-.451-.168a1.692,1.692,0,0,1,.985-.09l-.551-.5a3.6,3.6,0,0,0-4.109-.522,15.378,15.378,0,0,1-16.214,0,3.638,3.638,0,0,0-4.114.522l-.553.5a1.713,1.713,0,0,1,.991.09l-.451.168c.6.228.337.655.337.655l.7-.6a26.088,26.088,0,0,1,3.087,1.543A15.892,15.892,0,0,0,966.5,94.14h0a15.889,15.889,0,0,0,8.114-2.053,25.491,25.491,0,0,1,3.087-1.543l.7.6S978.158,90.736,978.735,90.49Zm-21.788.306-.408-.247.732-1.2.408.24a.714.714,0,1,1-.517,1.332.673.673,0,0,1-.215-.131Zm1.014.6-.174-.1.672-1.261.18.1Zm.866.456a.731.731,0,0,1-.35-.974l.007-.016a.733.733,0,1,1,.343.99Zm1.994-.425a.511.511,0,0,0-.247-.229.233.233,0,0,0-.315.1l0,0c-.107.27.565.451.4.883a.415.415,0,0,1-.534.243.34.34,0,0,1-.066-.032.656.656,0,0,1-.373-.349l.155-.1a.569.569,0,0,0,.289.27.223.223,0,0,0,.3-.091l.005-.011c.109-.289-.558-.481-.4-.889a.427.427,0,0,1,.561-.224.3.3,0,0,1,.041.02.594.594,0,0,1,.323.282Zm1.2,1.6a.522.522,0,0,1-.42-.607.4.4,0,0,1,.012-.054l.24-.888.192.048-.24.895a.366.366,0,0,0,.7.187l.24-.889.192.048-.24.895a.517.517,0,0,1-.643.347l-.029-.011Zm2.036.408-.2-.036-.461-1.034c-.037-.084-.078-.221-.078-.221h0v.209l-.168.92-.192-.037.252-1.41.2.029.463,1.034c.036.084.077.228.077.228h0a1.9,1.9,0,0,1,0-.211l.163-.913.2.037Zm.534.054h-.2l.168-1.418h.2Zm1,.107a.732.732,0,0,1-.7-.766l0-.02a.733.733,0,1,1,1.465.072h0a.739.739,0,0,1-.762.685Zm1.958-.029-.679-.9c-.045-.066-.088-.134-.126-.2h0a1.363,1.363,0,0,1,0,.209l.036.925h-.2l-.06-1.424h.2l.674.9a1.711,1.711,0,0,1,.131.2h0v-.205l-.036-.924h.2l.055,1.429Zm1.328-.133-.223-1.412.2-.036.192,1.243.636-.1V93.3Zm1-.175-.294-1.405.2-.041.288,1.405Zm1.027-.24-.492.126-.367-1.381.487-.126a.372.372,0,0,1,.481.213l.012.033a.335.335,0,0,1-.1.342h0a.347.347,0,0,1,.318.27.42.42,0,0,1-.333.492h0Zm.721-.2-.451-1.357.786-.264.054.168-.6.2.144.427.486-.162.054.162-.486.162.143.439.638-.211.053.168Zm1.8-.655-.493-.414-.281.107.209.529-.186.078-.536-1.327.408-.163a.881.881,0,0,1,.258-.072.392.392,0,0,1,.367.27.4.4,0,0,1-.09.456h0l.06.048.492.4Zm.7-.318-.541-1.135-.444.2-.072-.156,1.068-.5.078.155-.444.211.534,1.141Zm1.436-.745-.325-.294-.474.258.073.432-.18.1-.235-1.5.187-.1L975.75,91Zm.726-.432-.4.252-.757-1.2.4-.245a.715.715,0,0,1,.9,1.112.7.7,0,0,1-.141.089Z" transform="translate(-604.414 -10.86)" fill="#fff"/>
      <path id="Trazado_309" data-name="Trazado 309" d="M970.3,89.409l-.221.133.57.919.223-.133a.486.486,0,0,0,.167-.744.486.486,0,0,0-.648-.231A.571.571,0,0,0,970.3,89.409Z" transform="translate(-599.09 -10.693)" fill="#fff"/>
    </g>
  </g>
</svg>
